ISO-10303-21;
HEADER;
FILE_DESCRIPTION (( 'STEP AP214' ),
    '1' );
FILE_NAME ('THM 6WI.STEP',
    '2020-10-19T09:51:40',
    ( 'user' ),
    ( '' ),
    'SwSTEP 2.0',
    'SolidWorks 2016',
    '' );
FILE_SCHEMA (( 'AUTOMOTIVE_DESIGN' ));
ENDSEC;

DATA;
#1 = CARTESIAN_POINT ( 'NONE',  ( 15.43807222580995000, 9.999999999999998200, 2.638501114673698300E-015 ) ) ;
#2 = FACE_OUTER_BOUND ( 'NONE', #763, .T. ) ;
#3 = DIRECTION ( 'NONE',  ( 0.0000000000000000000, 1.000000000000000000, 0.0000000000000000000 ) ) ;
#4 = LINE ( 'NONE', #301, #57 ) ;
#5 = LINE ( 'NONE', #665, #622 ) ;
#6 = MECHANICAL_DESIGN_GEOMETRIC_PRESENTATION_REPRESENTATION (  '', ( #873 ), #53 ) ;
#7 = EDGE_CURVE ( 'NONE', #514, #465, #669, .T. ) ;
#8 = DIRECTION ( 'NONE',  ( 0.0000000000000000000, 0.0000000000000000000, 1.000000000000000000 ) ) ;
#9 = CYLINDRICAL_SURFACE ( 'NONE', #776, 0.2000000000000005100 ) ;
#10 = CIRCLE ( 'NONE', #828, 0.2999999999999999300 ) ;
#11 = CARTESIAN_POINT ( 'NONE',  ( -11.43000000000000300, -3.500000000000000000, -7.620000000000000100 ) ) ;
#12 = LINE ( 'NONE', #733, #269 ) ;
#13 = FILL_AREA_STYLE ('',( #135 ) ) ;
#14 = COLOUR_RGB ( '',0.0000000000000000000, 0.0000000000000000000, 0.0000000000000000000 ) ;
#15 = COLOUR_RGB ( '',0.7529411764705882200, 0.7529411764705882200, 0.7529411764705882200 ) ;
#16 = SURFACE_STYLE_FILL_AREA ( #13 ) ;
#17 = EDGE_CURVE ( 'NONE', #548, #548, #471, .T. ) ;
#18 = DIRECTION ( 'NONE',  ( 1.000000000000000000, 0.0000000000000000000, 0.0000000000000000000 ) ) ;
#19 = FACE_OUTER_BOUND ( 'NONE', #593, .T. ) ;
#20 = CARTESIAN_POINT ( 'NONE',  ( -11.43000000000000300, -3.500000000000000000, -7.320000000000000300 ) ) ;
#21 = CARTESIAN_POINT ( 'NONE',  ( -15.90000000000000400, 0.0000000000000000000, 9.950068535004888300 ) ) ;
#22 =( LENGTH_UNIT ( ) NAMED_UNIT ( * ) SI_UNIT ( .MILLI., .METRE. ) );
#23 = ADVANCED_FACE ( 'NONE', ( #398, #201, #859, #211, #208, #199, #195 ), #93, .F. ) ;
#24 = MECHANICAL_DESIGN_GEOMETRIC_PRESENTATION_REPRESENTATION (  '', ( #845 ), #69 ) ;
#25 =( LENGTH_UNIT ( ) NAMED_UNIT ( * ) SI_UNIT ( .MILLI., .METRE. ) );
#26 = SURFACE_STYLE_FILL_AREA ( #411 ) ;
#27 = LINE ( 'NONE', #246, #121 ) ;
#28 = CIRCLE ( 'NONE', #426, 0.2999999999999999300 ) ;
#29 = ADVANCED_FACE ( 'NONE', ( #187, #169 ), #119, .T. ) ;
#30 = CARTESIAN_POINT ( 'NONE',  ( 6.350000000000003200, 0.0000000000000000000, -7.620000000000000100 ) ) ;
#31 = FACE_OUTER_BOUND ( 'NONE', #757, .T. ) ;
#32 = COLOUR_RGB ( '',0.7529411764705882200, 0.7529411764705882200, 0.7529411764705882200 ) ;
#33 = APPLICATION_CONTEXT ( 'automotive_design' ) ;
#34 = LINE ( 'NONE', #253, #118 ) ;
#35 = ADVANCED_FACE ( 'NONE', ( #129 ), #145, .T. ) ;
#36 = DIRECTION ( 'NONE',  ( -0.0000000000000000000, 1.000000000000000000, -0.0000000000000000000 ) ) ;
#37 = CYLINDRICAL_SURFACE ( 'NONE', #617, 0.2000000000000005100 ) ;
#38 = PRESENTATION_LAYER_ASSIGNMENT (  '', '', ( #935 ) ) ;
#39 = CIRCLE ( 'NONE', #848, 0.2999999999999999300 ) ;
#40 = EDGE_CURVE ( 'NONE', #318, #318, #128, .T. ) ;
#41 =( NAMED_UNIT ( * ) PLANE_ANGLE_UNIT ( ) SI_UNIT ( $, .RADIAN. ) );
#42 = DIRECTION ( 'NONE',  ( 0.0000000000000000000, 0.0000000000000000000, 1.000000000000000000 ) ) ;
#43 = CARTESIAN_POINT ( 'NONE',  ( 15.89999999999999300, 0.0000000000000000000, 9.950068535004888300 ) ) ;
#44 = CARTESIAN_POINT ( 'NONE',  ( -15.90013690574983800, -0.005228219655119531600, -9.950205440754723800 ) ) ;
#45 = EDGE_CURVE ( 'NONE', #250, #378, #115, .T. ) ;
#46 = SURFACE_STYLE_FILL_AREA ( #730 ) ;
#47 = VECTOR ( 'NONE', #198, 1000.000000000000000 ) ;
#48 = VECTOR ( 'NONE', #215, 1000.000000000000000 ) ;
#49 = CARTESIAN_POINT ( 'NONE',  ( -15.90000000000000400, 0.0000000000000000000, -10.15000000000000000 ) ) ;
#50 = CARTESIAN_POINT ( 'NONE',  ( 0.0000000000000000000, 0.0000000000000000000, 0.0000000000000000000 ) ) ;
#51 = ORIENTED_EDGE ( 'NONE', *, *, #17, .F. ) ;
#52 = CIRCLE ( 'NONE', #422, 0.1999999999999987900 ) ;
#53 =( GEOMETRIC_REPRESENTATION_CONTEXT ( 3 ) GLOBAL_UNCERTAINTY_ASSIGNED_CONTEXT ( ( #216 ) ) GLOBAL_UNIT_ASSIGNED_CONTEXT ( ( #25, #578, #529 ) ) REPRESENTATION_CONTEXT ( 'NONE', 'WORKASPACE' ) );
#54 = LINE ( 'NONE', #556, #444 ) ;
#55 = EDGE_CURVE ( 'NONE', #105, #105, #126, .T. ) ;
#56 = CARTESIAN_POINT ( 'NONE',  ( 15.43807222580995000, 10.19999999999999900, 9.688072225809955600 ) ) ;
#57 = VECTOR ( 'NONE', #598, 1000.000000000000000 ) ;
#58 = MANIFOLD_SOLID_BREP ( '¶ê¨¤3', #571 ) ;
#59 = DIRECTION ( 'NONE',  ( 0.0000000000000000000, 0.0000000000000000000, 1.000000000000000000 ) ) ;
#60 = AXIS2_PLACEMENT_3D ( 'NONE', #468, #494, #623 ) ;
#61 = EDGE_LOOP ( 'NONE', ( #309 ) ) ;
#62 = CYLINDRICAL_SURFACE ( 'NONE', #361, 0.2000000000000005100 ) ;
#63 = EDGE_LOOP ( 'NONE', ( #773 ) ) ;
#64 = PRESENTATION_STYLE_ASSIGNMENT (( #712 ) ) ;
#65 = DIRECTION ( 'NONE',  ( -0.0000000000000000000, 1.000000000000000000, -0.0000000000000000000 ) ) ;
#66 =( NAMED_UNIT ( * ) SI_UNIT ( $, .STERADIAN. ) SOLID_ANGLE_UNIT ( ) );
#67 = EDGE_CURVE ( 'NONE', #882, #882, #110, .T. ) ;
#68 = CARTESIAN_POINT ( 'NONE',  ( 11.43000000000000100, -3.500000000000000000, -7.320000000000000300 ) ) ;
#69 =( GEOMETRIC_REPRESENTATION_CONTEXT ( 3 ) GLOBAL_UNCERTAINTY_ASSIGNED_CONTEXT ( ( #694 ) ) GLOBAL_UNIT_ASSIGNED_CONTEXT ( ( #416, #245, #141 ) ) REPRESENTATION_CONTEXT ( 'NONE', 'WORKASPACE' ) );
#70 =( NAMED_UNIT ( * ) PLANE_ANGLE_UNIT ( ) SI_UNIT ( $, .RADIAN. ) );
#71 = CARTESIAN_POINT ( 'NONE',  ( 15.63800369080506800, 10.00523538966157300, -9.688072225809955600 ) ) ;
#72 = ORIENTED_EDGE ( 'NONE', *, *, #314, .T. ) ;
#73 = DIRECTION ( 'NONE',  ( 0.0000000000000000000, 1.000000000000000000, 0.0000000000000000000 ) ) ;
#74 = DIRECTION ( 'NONE',  ( 0.0000000000000000000, 0.0000000000000000000, 1.000000000000000000 ) ) ;
#75 = PRESENTATION_STYLE_ASSIGNMENT (( #662 ) ) ;
#76 = MECHANICAL_DESIGN_GEOMETRIC_PRESENTATION_REPRESENTATION (  '', ( #328 ), #401 ) ;
#77 = LINE ( 'NONE', #357, #47 ) ;
#78 = CARTESIAN_POINT ( 'NONE',  ( 11.43000000000000100, -3.500000000000000000, -7.620000000000000100 ) ) ;
#79 = DIRECTION ( 'NONE',  ( -0.0000000000000000000, 1.000000000000000000, -0.0000000000000000000 ) ) ;
#80 = FACE_OUTER_BOUND ( 'NONE', #265, .T. ) ;
#81 = DIRECTION ( 'NONE',  ( 1.000000000000000000, 0.0000000000000000000, 0.0000000000000000000 ) ) ;
#82 = DIRECTION ( 'NONE',  ( 0.0000000000000000000, 0.0000000000000000000, 1.000000000000000000 ) ) ;
#83 = DIRECTION ( 'NONE',  ( 0.0000000000000000000, 0.02617694830787311400, -0.9996573249755572600 ) ) ;
#84 = MECHANICAL_DESIGN_GEOMETRIC_PRESENTATION_REPRESENTATION (  '', ( #935 ), #127 ) ;
#85 = EDGE_CURVE ( 'NONE', #553, #922, #34, .T. ) ;
#86 = VERTEX_POINT ( 'NONE', #772 ) ;
#87 = PRESENTATION_STYLE_ASSIGNMENT (( #913 ) ) ;
#88 = AXIS2_PLACEMENT_3D ( 'NONE', #338, #629, #677 ) ;
#89 = DIRECTION ( 'NONE',  ( 0.0000000000000000000, 1.000000000000000000, 0.0000000000000000000 ) ) ;
#90 = EDGE_CURVE ( 'NONE', #627, #922, #894, .T. ) ;
#91 = PRODUCT ( 'THM 6WI', 'THM 6WI', '', ( #545 ) ) ;
#92 = DIRECTION ( 'NONE',  ( 1.000000000000000000, 0.0000000000000000000, 0.0000000000000000000 ) ) ;
#93 = PLANE ( 'NONE',  #310 ) ;
#94 = ORIENTED_EDGE ( 'NONE', *, *, #377, .F. ) ;
#95 = DIRECTION ( 'NONE',  ( -1.000000000000000000, 0.0000000000000000000, -1.709087168450049800E-016 ) ) ;
#96 = SURFACE_STYLE_FILL_AREA ( #526 ) ;
#97 = ADVANCED_FACE ( 'NONE', ( #31 ), #899, .T. ) ;
#98 = FACE_OUTER_BOUND ( 'NONE', #224, .T. ) ;
#99 = STYLED_ITEM ( 'NONE', ( #117 ), #863 ) ;
#100 = ADVANCED_FACE ( 'NONE', ( #19 ), #9, .T. ) ;
#101 = PRESENTATION_STYLE_ASSIGNMENT (( #393 ) ) ;
#102 = EDGE_CURVE ( 'NONE', #553, #582, #414, .T. ) ;
#103 = SURFACE_STYLE_FILL_AREA ( #375 ) ;
#104 = ADVANCED_FACE ( 'NONE', ( #2 ), #860, .T. ) ;
#105 = VERTEX_POINT ( 'NONE', #405 ) ;
#106 = FACE_OUTER_BOUND ( 'NONE', #421, .T. ) ;
#107 = COLOUR_RGB ( '',0.0000000000000000000, 0.0000000000000000000, 0.0000000000000000000 ) ;
#108 = VECTOR ( 'NONE', #268, 1000.000000000000000 ) ;
#109 = CYLINDRICAL_SURFACE ( 'NONE', #525, 0.2999999999999999300 ) ;
#110 = CIRCLE ( 'NONE', #249, 0.2999999999999999300 ) ;
#111 = CARTESIAN_POINT ( 'NONE',  ( 11.43000000000000100, -3.799999999999999800, -7.620000000000000100 ) ) ;
#112 = CARTESIAN_POINT ( 'NONE',  ( -15.70020544075472600, -0.01046360931669418300, -9.950205440754723800 ) ) ;
#113 = EDGE_CURVE ( 'NONE', #696, #696, #10, .T. ) ;
#114 = AXIS2_PLACEMENT_3D ( 'NONE', #726, #302, #739 ) ;
#115 = LINE ( 'NONE', #202, #108 ) ;
#116 = AXIS2_PLACEMENT_3D ( 'NONE', #673, #451, #298 ) ;
#117 = PRESENTATION_STYLE_ASSIGNMENT (( #429 ) ) ;
#118 = VECTOR ( 'NONE', #932, 1000.000000000000000 ) ;
#119 = CYLINDRICAL_SURFACE ( 'NONE', #479, 0.2999999999999999300 ) ;
#120 = DIRECTION ( 'NONE',  ( 0.0000000000000000000, 0.0000000000000000000, 1.000000000000000000 ) ) ;
#121 = VECTOR ( 'NONE', #210, 1000.000000000000000 ) ;
#122 = DIRECTION ( 'NONE',  ( 0.0000000000000000000, 0.0000000000000000000, 1.000000000000000000 ) ) ;
#123 =( NAMED_UNIT ( * ) SI_UNIT ( $, .STERADIAN. ) SOLID_ANGLE_UNIT ( ) );
#124 = EDGE_LOOP ( 'NONE', ( #237, #238, #241, #267 ) ) ;
#125 = SPHERICAL_SURFACE ( 'NONE', #854, 0.2000000000000000100 ) ;
#126 = CIRCLE ( 'NONE', #496, 0.2999999999999999300 ) ;
#127 =( GEOMETRIC_REPRESENTATION_CONTEXT ( 3 ) GLOBAL_UNCERTAINTY_ASSIGNED_CONTEXT ( ( #229 ) ) GLOBAL_UNIT_ASSIGNED_CONTEXT ( ( #835, #536, #807 ) ) REPRESENTATION_CONTEXT ( 'NONE', 'WORKASPACE' ) );
#128 = CIRCLE ( 'NONE', #790, 0.2999999999999999300 ) ;
#129 = FACE_OUTER_BOUND ( 'NONE', #524, .T. ) ;
#130 = EDGE_CURVE ( 'NONE', #498, #498, #282, .T. ) ;
#131 = CARTESIAN_POINT ( 'NONE',  ( 15.81720229030754200, 0.0000000000000000000, 10.15000000000000400 ) ) ;
#132 = AXIS2_PLACEMENT_3D ( 'NONE', #567, #539, #478 ) ;
#133 =( NAMED_UNIT ( * ) PLANE_ANGLE_UNIT ( ) SI_UNIT ( $, .RADIAN. ) );
#134 = DIRECTION ( 'NONE',  ( 0.0000000000000000000, 1.000000000000000000, 0.0000000000000000000 ) ) ;
#135 = FILL_AREA_STYLE_COLOUR ( '', #799 ) ;
#136 = FACE_OUTER_BOUND ( 'NONE', #523, .T. ) ;
#137 = AXIS2_PLACEMENT_3D ( 'NONE', #579, #577, #681 ) ;
#138 = EDGE_CURVE ( 'NONE', #291, #291, #39, .T. ) ;
#139 =( LENGTH_UNIT ( ) NAMED_UNIT ( * ) SI_UNIT ( .MILLI., .METRE. ) );
#140 = CARTESIAN_POINT ( 'NONE',  ( -11.43000000000000300, 0.0000000000000000000, 7.919999999999999900 ) ) ;
#141 =( NAMED_UNIT ( * ) SI_UNIT ( $, .STERADIAN. ) SOLID_ANGLE_UNIT ( ) );
#142 = DIRECTION ( 'NONE',  ( 0.0000000000000000000, 0.0000000000000000000, 1.000000000000000000 ) ) ;
#143 = ORIENTED_EDGE ( 'NONE', *, *, #7, .F. ) ;
#144 = SPHERICAL_SURFACE ( 'NONE', #151, 0.2999999999999999900 ) ;
#145 = SPHERICAL_SURFACE ( 'NONE', #191, 0.2000000000000000100 ) ;
#146 = DIRECTION ( 'NONE',  ( -0.02616798426497939100, 0.9993150019883697600, -0.02616798426497939100 ) ) ;
#147 = SURFACE_STYLE_USAGE ( .BOTH. , #174 ) ;
#148 = SURFACE_STYLE_USAGE ( .BOTH. , #157 ) ;
#149 = CIRCLE ( 'NONE', #273, 0.2000000000000005100 ) ;
#150 = FACE_OUTER_BOUND ( 'NONE', #708, .T. ) ;
#151 = AXIS2_PLACEMENT_3D ( 'NONE', #838, #396, #180 ) ;
#152 = EDGE_CURVE ( 'NONE', #86, #86, #189, .T. ) ;
#153 = ADVANCED_FACE ( 'NONE', ( #136 ), #864, .T. ) ;
#154 = FACE_OUTER_BOUND ( 'NONE', #527, .T. ) ;
#155 = ADVANCED_BREP_SHAPE_REPRESENTATION ( 'THM 6WI', ( #58, #290 ), #672 ) ;
#156 = DIRECTION ( 'NONE',  ( 1.000000000000000000, 0.0000000000000000000, 0.0000000000000000000 ) ) ;
#157 = SURFACE_SIDE_STYLE ('',( #183 ) ) ;
#158 = CARTESIAN_POINT ( 'NONE',  ( 11.43000000000000100, 0.0000000000000000000, 7.919999999999999900 ) ) ;
#159 = EDGE_CURVE ( 'NONE', #856, #856, #865, .T. ) ;
#160 = LINE ( 'NONE', #905, #206 ) ;
#161 = ORIENTED_EDGE ( 'NONE', *, *, #875, .F. ) ;
#162 = DIRECTION ( 'NONE',  ( 0.0000000000000000000, 1.000000000000000000, 0.0000000000000000000 ) ) ;
#163 = AXIS2_PLACEMENT_3D ( 'NONE', #276, #134, #354 ) ;
#164 = ADVANCED_FACE ( 'NONE', ( #877 ), #806, .T. ) ;
#165 = EDGE_CURVE ( 'NONE', #676, #676, #28, .T. ) ;
#166 = DIRECTION ( 'NONE',  ( -0.0000000000000000000, 1.000000000000000000, -0.0000000000000000000 ) ) ;
#167 =( BOUNDED_CURVE ( )  B_SPLINE_CURVE ( 3, ( #615, #609, #602, #590 ),
 .UNSPECIFIED., .F., .T. ) 
 B_SPLINE_CURVE_WITH_KNOTS ( ( 4, 4 ),
 ( 5.498129760120314700, 7.068240854238866600 ),
 .UNSPECIFIED. ) 
 CURVE ( )  GEOMETRIC_REPRESENTATION_ITEM ( )  RATIONAL_B_SPLINE_CURVE ( ( 1.000000000000000000, 0.8048993373437817200, 0.8048993373437817200, 1.000000000000000000 ) ) 
 REPRESENTATION_ITEM ( '' )  );
#168 = ADVANCED_FACE ( 'NONE', ( #271 ), #599, .T. ) ;
#169 = FACE_OUTER_BOUND ( 'NONE', #728, .T. ) ;
#170 = PRODUCT_DEFINITION ( 'UNKNOWN', '', #554, #242 ) ;
#171 =( LENGTH_UNIT ( ) NAMED_UNIT ( * ) SI_UNIT ( .MILLI., .METRE. ) );
#172 = EDGE_CURVE ( 'NONE', #513, #638, #641, .T. ) ;
#173 = CARTESIAN_POINT ( 'NONE',  ( 15.89999999999999700, 0.0000000000000000000, -10.15000000000000000 ) ) ;
#174 = SURFACE_SIDE_STYLE ('',( #325 ) ) ;
#175 = SURFACE_SIDE_STYLE ('',( #26 ) ) ;
#176 = FILL_AREA_STYLE ('',( #220 ) ) ;
#177 = AXIS2_PLACEMENT_3D ( 'NONE', #558, #487, #560 ) ;
#178 = COLOUR_RGB ( '',0.7529411764705882200, 0.7529411764705882200, 0.7529411764705882200 ) ;
#179 = DIRECTION ( 'NONE',  ( 0.0000000000000000000, 0.0000000000000000000, 1.000000000000000000 ) ) ;
#180 = DIRECTION ( 'NONE',  ( 1.000000000000000000, 0.0000000000000000000, 0.0000000000000000000 ) ) ;
#181 = EDGE_CURVE ( 'NONE', #541, #787, #682, .T. ) ;
#182 = PRODUCT_DEFINITION_SHAPE ( 'NONE', 'NONE',  #403 ) ;
#183 = SURFACE_STYLE_FILL_AREA ( #666 ) ;
#184 = DIRECTION ( 'NONE',  ( 0.02616798426497939800, -0.9993150019883697600, -0.02616798426497939100 ) ) ;
#185 = PRESENTATION_STYLE_ASSIGNMENT (( #148 ) ) ;
#186 = SPHERICAL_SURFACE ( 'NONE', #163, 0.2999999999999999900 ) ;
#187 = FACE_OUTER_BOUND ( 'NONE', #755, .T. ) ;
#188 = LINE ( 'NONE', #348, #48 ) ;
#189 = CIRCLE ( 'NONE', #60, 0.2999999999999999300 ) ;
#190 = UNCERTAINTY_MEASURE_WITH_UNIT (LENGTH_MEASURE( 1.000000000000000100E-005 ), #751, 'distance_accuracy_value', 'NONE');
#191 = AXIS2_PLACEMENT_3D ( 'NONE', #203, #162, #194 ) ;
#192 = DIRECTION ( 'NONE',  ( -0.0000000000000000000, -0.0000000000000000000, 1.000000000000000000 ) ) ;
#193 = CARTESIAN_POINT ( 'NONE',  ( 0.0000000000000000000, 9.999999999999998200, -9.688072225809955600 ) ) ;
#194 = DIRECTION ( 'NONE',  ( 1.000000000000000000, 0.0000000000000000000, 0.0000000000000000000 ) ) ;
#195 = FACE_OUTER_BOUND ( 'NONE', #222, .T. ) ;
#196 = PRESENTATION_LAYER_ASSIGNMENT (  '', '', ( #99 ) ) ;
#197 = FACE_OUTER_BOUND ( 'NONE', #563, .T. ) ;
#198 = DIRECTION ( 'NONE',  ( 1.709087168450056000E-016, -0.0000000000000000000, -1.000000000000000000 ) ) ;
#199 = FACE_BOUND ( 'NONE', #322, .T. ) ;
#200 = EDGE_CURVE ( 'NONE', #787, #413, #385, .T. ) ;
#201 = FACE_BOUND ( 'NONE', #706, .T. ) ;
#202 = CARTESIAN_POINT ( 'NONE',  ( -15.63800369080507300, 10.00523538966157300, -9.882903599994293100 ) ) ;
#203 = CARTESIAN_POINT ( 'NONE',  ( 15.43807222580995200, 9.999999999999998200, -9.688072225809955600 ) ) ;
#204 = CARTESIAN_POINT ( 'NONE',  ( 15.70006853500489200, 0.0000000000000000000, -10.15000000000000000 ) ) ;
#205 =( NAMED_UNIT ( * ) SI_UNIT ( $, .STERADIAN. ) SOLID_ANGLE_UNIT ( ) );
#206 = VECTOR ( 'NONE', #810, 1000.000000000000200 ) ;
#207 = PRESENTATION_LAYER_ASSIGNMENT (  '', '', ( #328 ) ) ;
#208 = FACE_BOUND ( 'NONE', #812, .T. ) ;
#209 = PRESENTATION_STYLE_ASSIGNMENT (( #840 ) ) ;
#210 = DIRECTION ( 'NONE',  ( 1.709087168450056200E-016, -0.0000000000000000000, -1.000000000000000000 ) ) ;
#211 = FACE_BOUND ( 'NONE', #581, .T. ) ;
#212 = CARTESIAN_POINT ( 'NONE',  ( 6.350000000000003200, 0.0000000000000000000, -7.320000000000000300 ) ) ;
#213 = EDGE_LOOP ( 'NONE', ( #762 ) ) ;
#214 = EDGE_CURVE ( 'NONE', #603, #399, #531, .T. ) ;
#215 = DIRECTION ( 'NONE',  ( 0.0000000000000000000, 0.0000000000000000000, 1.000000000000000000 ) ) ;
#216 = UNCERTAINTY_MEASURE_WITH_UNIT (LENGTH_MEASURE( 1.000000000000000100E-005 ), #25, 'distance_accuracy_value', 'NONE');
#217 = AXIS2_PLACEMENT_3D ( 'NONE', #939, #379, #122 ) ;
#218 = DIRECTION ( 'NONE',  ( 0.0000000000000000000, -0.02617694830787410700, 0.9996573249755571500 ) ) ;
#219 = EDGE_CURVE ( 'NONE', #638, #378, #759, .T. ) ;
#220 = FILL_AREA_STYLE_COLOUR ( '', #493 ) ;
#221 = FILL_AREA_STYLE ('',( #626 ) ) ;
#222 = EDGE_LOOP ( 'NONE', ( #407, #917, #647, #625, #452, #659, #583, #391 ) ) ;
#223 = VECTOR ( 'NONE', #608, 1000.000000000000200 ) ;
#224 = EDGE_LOOP ( 'NONE', ( #351 ) ) ;
#225 = EDGE_LOOP ( 'NONE', ( #786 ) ) ;
#226 = FILL_AREA_STYLE_COLOUR ( '', #178 ) ;
#227 = CARTESIAN_POINT ( 'NONE',  ( -8.890000000000002300, -3.500000000000000000, -7.620000000000000100 ) ) ;
#228 = UNCERTAINTY_MEASURE_WITH_UNIT (LENGTH_MEASURE( 1.000000000000000100E-005 ), #22, 'distance_accuracy_value', 'NONE');
#229 = UNCERTAINTY_MEASURE_WITH_UNIT (LENGTH_MEASURE( 1.000000000000000100E-005 ), #835, 'distance_accuracy_value', 'NONE');
#230 = CARTESIAN_POINT ( 'NONE',  ( 15.43807222580995000, 10.00523538966157300, 9.888003690805069500 ) ) ;
#231 = MECHANICAL_DESIGN_GEOMETRIC_PRESENTATION_REPRESENTATION (  '', ( #597 ), #552 ) ;
#232 = CARTESIAN_POINT ( 'NONE',  ( -15.43807222580995900, 9.999999999999998200, 9.688072225809955600 ) ) ;
#233 = VECTOR ( 'NONE', #475, 1000.000000000000200 ) ;
#234 = AXIS2_PLACEMENT_3D ( 'NONE', #919, #120, #896 ) ;
#235 = EDGE_CURVE ( 'NONE', #603, #250, #457, .T. ) ;
#236 = FILL_AREA_STYLE_COLOUR ( '', #32 ) ;
#237 = ORIENTED_EDGE ( 'NONE', *, *, #214, .T. ) ;
#238 = ORIENTED_EDGE ( 'NONE', *, *, #589, .F. ) ;
#239 = LINE ( 'NONE', #789, #891 ) ;
#240 = AXIS2_PLACEMENT_3D ( 'NONE', #347, #566, #286 ) ;
#241 = ORIENTED_EDGE ( 'NONE', *, *, #699, .T. ) ;
#242 = PRODUCT_DEFINITION_CONTEXT ( 'detailed design', #285, 'design' ) ;
#243 = EDGE_CURVE ( 'NONE', #582, #250, #507, .T. ) ;
#244 = ADVANCED_FACE ( 'NONE', ( #826 ), #725, .T. ) ;
#245 =( NAMED_UNIT ( * ) PLANE_ANGLE_UNIT ( ) SI_UNIT ( $, .RADIAN. ) );
#246 = CARTESIAN_POINT ( 'NONE',  ( 15.89999999999999700, 0.0000000000000000000, -10.15000000000000000 ) ) ;
#247 = ORIENTED_EDGE ( 'NONE', *, *, #362, .T. ) ;
#248 = LINE ( 'NONE', #923, #636 ) ;
#249 = AXIS2_PLACEMENT_3D ( 'NONE', #30, #287, #937 ) ;
#250 = VERTEX_POINT ( 'NONE', #518 ) ;
#251 = ADVANCED_FACE ( 'NONE', ( #671 ), #37, .T. ) ;
#252 = ORIENTED_EDGE ( 'NONE', *, *, #219, .F. ) ;
#253 = CARTESIAN_POINT ( 'NONE',  ( -15.90000000000000400, 0.0000000000000000000, 10.15000000000000000 ) ) ;
#254 = MECHANICAL_DESIGN_GEOMETRIC_PRESENTATION_REPRESENTATION (  '', ( #99 ), #311 ) ;
#255 = CARTESIAN_POINT ( 'NONE',  ( -15.70006853500489200, 0.0000000000000000000, 10.15000000000000000 ) ) ;
#256 = EDGE_CURVE ( 'NONE', #514, #582, #188, .T. ) ;
#257 = CARTESIAN_POINT ( 'NONE',  ( -15.63290359999429700, 10.19999999999999900, -9.688072225809955600 ) ) ;
#258 = CARTESIAN_POINT ( 'NONE',  ( -15.70006853500489200, 0.0000000000000000000, 10.15000000000000000 ) ) ;
#259 = DIRECTION ( 'NONE',  ( 0.02616798426497939400, 0.9993150019883697600, 0.02616798426497939100 ) ) ;
#260 = PRESENTATION_LAYER_ASSIGNMENT (  '', '', ( #911 ) ) ;
#261 = CARTESIAN_POINT ( 'NONE',  ( -8.890000000000002300, -3.799999999999999800, -7.620000000000000100 ) ) ;
#262 = AXIS2_PLACEMENT_3D ( 'NONE', #173, #741, #938 ) ;
#263 = VERTEX_POINT ( 'NONE', #140 ) ;
#264 = FILL_AREA_STYLE_COLOUR ( '', #907 ) ;
#265 = EDGE_LOOP ( 'NONE', ( #743, #801, #849, #366 ) ) ;
#266 = SURFACE_SIDE_STYLE ('',( #436 ) ) ;
#267 = ORIENTED_EDGE ( 'NONE', *, *, #504, .F. ) ;
#268 = DIRECTION ( 'NONE',  ( -0.0000000000000000000, -0.0000000000000000000, -1.000000000000000000 ) ) ;
#269 = VECTOR ( 'NONE', #652, 1000.000000000000000 ) ;
#270 = EDGE_CURVE ( 'NONE', #638, #787, #619, .T. ) ;
#271 = FACE_OUTER_BOUND ( 'NONE', #397, .T. ) ;
#272 = DIRECTION ( 'NONE',  ( 0.0000000000000000000, -0.0000000000000000000, 1.000000000000000000 ) ) ;
#273 = AXIS2_PLACEMENT_3D ( 'NONE', #855, #667, #867 ) ;
#274 = EDGE_CURVE ( 'NONE', #465, #638, #477, .T. ) ;
#275 = ORIENTED_EDGE ( 'NONE', *, *, #589, .T. ) ;
#276 = CARTESIAN_POINT ( 'NONE',  ( 6.350000000000003200, -3.500000000000000000, -7.620000000000000100 ) ) ;
#277 = ORIENTED_EDGE ( 'NONE', *, *, #574, .F. ) ;
#278 = VERTEX_POINT ( 'NONE', #230 ) ;
#279 = CARTESIAN_POINT ( 'NONE',  ( 15.89999999999999300, 0.0000000000000000000, 9.950068535004888300 ) ) ;
#280 = DIRECTION ( 'NONE',  ( -1.000000000000000000, 0.0000000000000000000, 0.0000000000000000000 ) ) ;
#281 = CARTESIAN_POINT ( 'NONE',  ( -8.890000000000002300, -3.500000000000000000, -7.320000000000000300 ) ) ;
#282 = CIRCLE ( 'NONE', #450, 0.2999999999999999300 ) ;
#283 = CARTESIAN_POINT ( 'NONE',  ( -11.43000000000000300, -3.500000000000000000, 7.620000000000000100 ) ) ;
#284 = DIRECTION ( 'NONE',  ( 0.0000000000000000000, 0.0000000000000000000, 1.000000000000000000 ) ) ;
#285 = APPLICATION_CONTEXT ( 'automotive_design' ) ;
#286 = DIRECTION ( 'NONE',  ( -0.02617694830787320800, -0.9996573249755572600, 0.0000000000000000000 ) ) ;
#287 = DIRECTION ( 'NONE',  ( -0.0000000000000000000, -1.000000000000000000, 0.0000000000000000000 ) ) ;
#288 = DIRECTION ( 'NONE',  ( 1.000000000000000000, -0.0000000000000000000, -0.0000000000000000000 ) ) ;
#289 = ORIENTED_EDGE ( 'NONE', *, *, #152, .T. ) ;
#290 = AXIS2_PLACEMENT_3D ( 'NONE', #50, #766, #317 ) ;
#291 = VERTEX_POINT ( 'NONE', #20 ) ;
#292 = SURFACE_STYLE_FILL_AREA ( #906 ) ;
#293 = DIRECTION ( 'NONE',  ( -0.0000000000000000000, -1.000000000000000000, 0.0000000000000000000 ) ) ;
#294 = EDGE_CURVE ( 'NONE', #627, #663, #27, .T. ) ;
#295 = ORIENTED_EDGE ( 'NONE', *, *, #607, .F. ) ;
#296 = ORIENTED_EDGE ( 'NONE', *, *, #130, .T. ) ;
#297 = CARTESIAN_POINT ( 'NONE',  ( 15.43807222580995000, 9.999999999999998200, 9.688072225809955600 ) ) ;
#298 = DIRECTION ( 'NONE',  ( 0.0000000000000000000, 0.02617694830787410700, 0.9996573249755571500 ) ) ;
#299 = STYLED_ITEM ( 'NONE', ( #101 ), #488 ) ;
#300 = PRESENTATION_STYLE_ASSIGNMENT (( #147 ) ) ;
#301 = CARTESIAN_POINT ( 'NONE',  ( 15.63800369080506400, 10.00523538966157300, 9.882903599994293100 ) ) ;
#302 = DIRECTION ( 'NONE',  ( -0.0000000000000000000, -1.000000000000000000, 0.0000000000000000000 ) ) ;
#303 =( NAMED_UNIT ( * ) SI_UNIT ( $, .STERADIAN. ) SOLID_ANGLE_UNIT ( ) );
#304 = DIRECTION ( 'NONE',  ( -0.0000000000000000000, 1.000000000000000000, -0.0000000000000000000 ) ) ;
#305 = APPLICATION_PROTOCOL_DEFINITION ( 'draft international standard', 'automotive_design', 1998, #921 ) ;
#306 = DIRECTION ( 'NONE',  ( 0.0000000000000000000, 0.0000000000000000000, 1.000000000000000000 ) ) ;
#307 = ORIENTED_EDGE ( 'NONE', *, *, #274, .F. ) ;
#308 = ORIENTED_EDGE ( 'NONE', *, *, #172, .T. ) ;
#309 = ORIENTED_EDGE ( 'NONE', *, *, #40, .F. ) ;
#310 = AXIS2_PLACEMENT_3D ( 'NONE', #844, #721, #360 ) ;
#311 =( GEOMETRIC_REPRESENTATION_CONTEXT ( 3 ) GLOBAL_UNCERTAINTY_ASSIGNED_CONTEXT ( ( #752 ) ) GLOBAL_UNIT_ASSIGNED_CONTEXT ( ( #767, #423, #813 ) ) REPRESENTATION_CONTEXT ( 'NONE', 'WORKASPACE' ) );
#312 = CARTESIAN_POINT ( 'NONE',  ( -15.70020544075472600, -0.005228219655119570700, -10.15013690574983800 ) ) ;
#313 = UNCERTAINTY_MEASURE_WITH_UNIT (LENGTH_MEASURE( 1.000000000000000100E-005 ), #709, 'distance_accuracy_value', 'NONE');
#314 = EDGE_CURVE ( 'NONE', #470, #470, #836, .T. ) ;
#315 = DIRECTION ( 'NONE',  ( 0.02616798426497983800, 0.9993150019883698700, 0.02616798426498029300 ) ) ;
#316 = LINE ( 'NONE', #522, #425 ) ;
#317 = DIRECTION ( 'NONE',  ( 1.000000000000000000, 0.0000000000000000000, 0.0000000000000000000 ) ) ;
#318 = VERTEX_POINT ( 'NONE', #281 ) ;
#319 = EDGE_LOOP ( 'NONE', ( #472 ) ) ;
#320 = MECHANICAL_DESIGN_GEOMETRIC_PRESENTATION_REPRESENTATION (  '', ( #911 ), #382 ) ;
#321 = ORIENTED_EDGE ( 'NONE', *, *, #674, .T. ) ;
#322 = EDGE_LOOP ( 'NONE', ( #573 ) ) ;
#323 = CARTESIAN_POINT ( 'NONE',  ( -8.890000000000002300, -3.500000000000000000, -7.620000000000000100 ) ) ;
#324 = CARTESIAN_POINT ( 'NONE',  ( 11.43000000000000100, -3.500000000000000000, -7.620000000000000100 ) ) ;
#325 = SURFACE_STYLE_FILL_AREA ( #176 ) ;
#326 =( NAMED_UNIT ( * ) PLANE_ANGLE_UNIT ( ) SI_UNIT ( $, .RADIAN. ) );
#327 = DIRECTION ( 'NONE',  ( 0.0000000000000000000, -0.9996573249755572600, 0.02617694830787320800 ) ) ;
#328 = STYLED_ITEM ( 'NONE', ( #300 ), #244 ) ;
#329 = CARTESIAN_POINT ( 'NONE',  ( 15.63800369080506400, 10.00523538966157300, 9.688072225809955600 ) ) ;
#330 = EDGE_CURVE ( 'NONE', #541, #497, #4, .T. ) ;
#331 = DIRECTION ( 'NONE',  ( 0.0000000000000000000, 0.0000000000000000000, 1.000000000000000000 ) ) ;
#332 = CARTESIAN_POINT ( 'NONE',  ( 15.63290359999429000, 10.00523538966157300, -9.888003690805069500 ) ) ;
#333 = VERTEX_POINT ( 'NONE', #204 ) ;
#334 = FACE_OUTER_BOUND ( 'NONE', #601, .T. ) ;
#335 = CARTESIAN_POINT ( 'NONE',  ( -15.43807222580995700, 9.999999999999998200, -9.688072225809955600 ) ) ;
#336 = EDGE_LOOP ( 'NONE', ( #72 ) ) ;
#337 = AXIS2_PLACEMENT_3D ( 'NONE', #742, #506, #458 ) ;
#338 = CARTESIAN_POINT ( 'NONE',  ( -15.43807222580995900, 9.999999999999998200, 0.0000000000000000000 ) ) ;
#339 = EDGE_LOOP ( 'NONE', ( #503 ) ) ;
#340 = CARTESIAN_POINT ( 'NONE',  ( 15.63290359999428800, 10.19999999999999900, 9.688072225809955600 ) ) ;
#341 =( NAMED_UNIT ( * ) SI_UNIT ( $, .STERADIAN. ) SOLID_ANGLE_UNIT ( ) );
#342 = ADVANCED_FACE ( 'NONE', ( #150, #829 ), #109, .T. ) ;
#343 = FILL_AREA_STYLE_COLOUR ( '', #874 ) ;
#344 = UNCERTAINTY_MEASURE_WITH_UNIT (LENGTH_MEASURE( 1.000000000000000100E-005 ), #843, 'distance_accuracy_value', 'NONE');
#345 = SPHERICAL_SURFACE ( 'NONE', #822, 0.2999999999999999900 ) ;
#346 = FACE_OUTER_BOUND ( 'NONE', #63, .T. ) ;
#347 = CARTESIAN_POINT ( 'NONE',  ( -15.90000000000000400, 0.0000000000000000000, -10.15000000000000000 ) ) ;
#348 = CARTESIAN_POINT ( 'NONE',  ( -15.90000000000000400, 0.0000000000000000000, -10.15000000000000000 ) ) ;
#349 = ADVANCED_FACE ( 'NONE', ( #485 ), #680, .T. ) ;
#350 = SURFACE_SIDE_STYLE ('',( #103 ) ) ;
#351 = ORIENTED_EDGE ( 'NONE', *, *, #17, .T. ) ;
#352 = CYLINDRICAL_SURFACE ( 'NONE', #764, 0.2999999999999999300 ) ;
#353 = EDGE_LOOP ( 'NONE', ( #705 ) ) ;
#354 = DIRECTION ( 'NONE',  ( 1.000000000000000000, 0.0000000000000000000, 0.0000000000000000000 ) ) ;
#355 = EDGE_LOOP ( 'NONE', ( #390 ) ) ;
#356 = ORIENTED_EDGE ( 'NONE', *, *, #404, .F. ) ;
#357 = CARTESIAN_POINT ( 'NONE',  ( 15.43807222580995200, 10.19999999999999900, -9.882903599994293100 ) ) ;
#358 = EDGE_CURVE ( 'NONE', #278, #497, #502, .T. ) ;
#359 = CARTESIAN_POINT ( 'NONE',  ( 15.43807222580995200, 10.19999999999999900, -9.688072225809955600 ) ) ;
#360 = DIRECTION ( 'NONE',  ( 0.0000000000000000000, 0.0000000000000000000, 1.000000000000000000 ) ) ;
#361 = AXIS2_PLACEMENT_3D ( 'NONE', #193, #371, #778 ) ;
#362 = EDGE_CURVE ( 'NONE', #497, #627, #239, .T. ) ;
#363 = ADVANCED_FACE ( 'NONE', ( #707 ), #345, .T. ) ;
#364 = ORIENTED_EDGE ( 'NONE', *, *, #895, .F. ) ;
#365 = CARTESIAN_POINT ( 'NONE',  ( -15.43807222580995700, 10.00523538966157300, -9.888003690805069500 ) ) ;
#366 = ORIENTED_EDGE ( 'NONE', *, *, #648, .F. ) ;
#367 = ORIENTED_EDGE ( 'NONE', *, *, #138, .F. ) ;
#368 = DIRECTION ( 'NONE',  ( 1.000000000000000000, -0.0000000000000000000, 0.0000000000000000000 ) ) ;
#369 = APPLICATION_PROTOCOL_DEFINITION ( 'draft international standard', 'automotive_design', 1998, #285 ) ;
#370 = FACE_OUTER_BOUND ( 'NONE', #628, .T. ) ;
#371 = DIRECTION ( 'NONE',  ( -1.000000000000000000, 0.0000000000000000000, 0.0000000000000000000 ) ) ;
#372 =( GEOMETRIC_REPRESENTATION_CONTEXT ( 3 ) GLOBAL_UNCERTAINTY_ASSIGNED_CONTEXT ( ( #424 ) ) GLOBAL_UNIT_ASSIGNED_CONTEXT ( ( #139, #133, #123 ) ) REPRESENTATION_CONTEXT ( 'NONE', 'WORKASPACE' ) );
#373 = SURFACE_SIDE_STYLE ('',( #439 ) ) ;
#374 = STYLED_ITEM ( 'NONE', ( #612 ), #904 ) ;
#375 = FILL_AREA_STYLE ('',( #900 ) ) ;
#376 =( NAMED_UNIT ( * ) PLANE_ANGLE_UNIT ( ) SI_UNIT ( $, .RADIAN. ) );
#377 = EDGE_CURVE ( 'NONE', #497, #547, #926, .T. ) ;
#378 = VERTEX_POINT ( 'NONE', #808 ) ;
#379 = DIRECTION ( 'NONE',  ( -0.0000000000000000000, -1.000000000000000000, 0.0000000000000000000 ) ) ;
#380 = ORIENTED_EDGE ( 'NONE', *, *, #102, .F. ) ;
#381 = ORIENTED_EDGE ( 'NONE', *, *, #555, .F. ) ;
#382 =( GEOMETRIC_REPRESENTATION_CONTEXT ( 3 ) GLOBAL_UNCERTAINTY_ASSIGNED_CONTEXT ( ( #568 ) ) GLOBAL_UNIT_ASSIGNED_CONTEXT ( ( #931, #41, #510 ) ) REPRESENTATION_CONTEXT ( 'NONE', 'WORKASPACE' ) );
#383 = CARTESIAN_POINT ( 'NONE',  ( -11.43000000000000300, -3.799999999999999800, 7.620000000000000100 ) ) ;
#384 = PLANE ( 'NONE',  #814 ) ;
#385 = CIRCLE ( 'NONE', #132, 0.2000000000000005100 ) ;
#386 = CARTESIAN_POINT ( 'NONE',  ( -15.88623620871984900, 0.5256179830750075100, 9.936304743724729600 ) ) ;
#387 = DIRECTION ( 'NONE',  ( 0.0000000000000000000, 1.000000000000000000, -0.0000000000000000000 ) ) ;
#388 =( NAMED_UNIT ( * ) PLANE_ANGLE_UNIT ( ) SI_UNIT ( $, .RADIAN. ) );
#389 = EDGE_CURVE ( 'NONE', #333, #465, #12, .T. ) ;
#390 = ORIENTED_EDGE ( 'NONE', *, *, #40, .T. ) ;
#391 = ORIENTED_EDGE ( 'NONE', *, *, #102, .T. ) ;
#392 = FILL_AREA_STYLE ('',( #588 ) ) ;
#393 = SURFACE_STYLE_USAGE ( .BOTH. , #175 ) ;
#394 = STYLED_ITEM ( 'NONE', ( #639 ), #782 ) ;
#395 = DIRECTION ( 'NONE',  ( -0.0000000000000000000, 1.000000000000000000, -0.0000000000000000000 ) ) ;
#396 = DIRECTION ( 'NONE',  ( 0.0000000000000000000, 1.000000000000000000, 0.0000000000000000000 ) ) ;
#397 = EDGE_LOOP ( 'NONE', ( #143, #364, #252, #307 ) ) ;
#398 = FACE_BOUND ( 'NONE', #731, .T. ) ;
#399 = VERTEX_POINT ( 'NONE', #534 ) ;
#400 = FILL_AREA_STYLE_COLOUR ( '', #595 ) ;
#401 =( GEOMETRIC_REPRESENTATION_CONTEXT ( 3 ) GLOBAL_UNCERTAINTY_ASSIGNED_CONTEXT ( ( #228 ) ) GLOBAL_UNIT_ASSIGNED_CONTEXT ( ( #22, #70, #66 ) ) REPRESENTATION_CONTEXT ( 'NONE', 'WORKASPACE' ) );
#402 = STYLED_ITEM ( 'NONE', ( #185 ), #29 ) ;
#403 = PRODUCT_DEFINITION ( 'UNKNOWN', '', #449, #570 ) ;
#404 = EDGE_CURVE ( 'NONE', #333, #663, #167, .T. ) ;
#405 = CARTESIAN_POINT ( 'NONE',  ( -11.43000000000000300, -3.500000000000000000, 7.919999999999999900 ) ) ;
#406 = ORIENTED_EDGE ( 'NONE', *, *, #181, .T. ) ;
#407 = ORIENTED_EDGE ( 'NONE', *, *, #256, .F. ) ;
#408 = MECHANICAL_DESIGN_GEOMETRIC_PRESENTATION_REPRESENTATION (  '', ( #299 ), #456 ) ;
#409 = SURFACE_SIDE_STYLE ('',( #716 ) ) ;
#410 = EDGE_LOOP ( 'NONE', ( #308, #462, #161 ) ) ;
#411 = FILL_AREA_STYLE ('',( #343 ) ) ;
#412 = SPHERICAL_SURFACE ( 'NONE', #803, 0.2999999999999999900 ) ;
#413 = VERTEX_POINT ( 'NONE', #359 ) ;
#414 =( BOUNDED_CURVE ( )  B_SPLINE_CURVE ( 3, ( #258, #850, #918, #21 ),
 .UNSPECIFIED., .F., .T. ) 
 B_SPLINE_CURVE_WITH_KNOTS ( ( 4, 4 ),
 ( 5.498129760120314700, 7.068240854238866600 ),
 .UNSPECIFIED. ) 
 CURVE ( )  GEOMETRIC_REPRESENTATION_ITEM ( )  RATIONAL_B_SPLINE_CURVE ( ( 1.000000000000000000, 0.8048993373437817200, 0.8048993373437817200, 1.000000000000000000 ) ) 
 REPRESENTATION_ITEM ( '' )  );
#415 = ADVANCED_FACE ( 'NONE', ( #370 ), #817, .T. ) ;
#416 =( LENGTH_UNIT ( ) NAMED_UNIT ( * ) SI_UNIT ( .MILLI., .METRE. ) );
#417 = ADVANCED_FACE ( 'NONE', ( #879 ), #876, .T. ) ;
#418 = CARTESIAN_POINT ( 'NONE',  ( 0.0000000000000000000, 9.999999999999998200, 9.688072225809955600 ) ) ;
#419 = ORIENTED_EDGE ( 'NONE', *, *, #330, .T. ) ;
#420 = DIRECTION ( 'NONE',  ( 8.673617379884013400E-015, -1.000000000000000000, 0.0000000000000000000 ) ) ;
#421 = EDGE_LOOP ( 'NONE', ( #367 ) ) ;
#422 = AXIS2_PLACEMENT_3D ( 'NONE', #473, #192, #280 ) ;
#423 =( NAMED_UNIT ( * ) PLANE_ANGLE_UNIT ( ) SI_UNIT ( $, .RADIAN. ) );
#424 = UNCERTAINTY_MEASURE_WITH_UNIT (LENGTH_MEASURE( 1.000000000000000100E-005 ), #139, 'distance_accuracy_value', 'NONE');
#425 = VECTOR ( 'NONE', #454, 1000.000000000000000 ) ;
#426 = AXIS2_PLACEMENT_3D ( 'NONE', #869, #846, #841 ) ;
#427 = SURFACE_STYLE_USAGE ( .BOTH. , #431 ) ;
#428 = AXIS2_PLACEMENT_3D ( 'NONE', #886, #610, #520 ) ;
#429 = SURFACE_STYLE_USAGE ( .BOTH. , #816 ) ;
#430 = FACE_OUTER_BOUND ( 'NONE', #319, .T. ) ;
#431 = SURFACE_SIDE_STYLE ('',( #542 ) ) ;
#432 = ORIENTED_EDGE ( 'NONE', *, *, #294, .T. ) ;
#433 = VECTOR ( 'NONE', #528, 1000.000000000000000 ) ;
#434 = ADVANCED_FACE ( 'NONE', ( #710 ), #491, .T. ) ;
#435 = AXIS2_PLACEMENT_3D ( 'NONE', #702, #644, #640 ) ;
#436 = SURFACE_STYLE_FILL_AREA ( #930 ) ;
#437 = PRESENTATION_LAYER_ASSIGNMENT (  '', '', ( #394 ) ) ;
#438 = EDGE_LOOP ( 'NONE', ( #51 ) ) ;
#439 = SURFACE_STYLE_FILL_AREA ( #643 ) ;
#440 = PRESENTATION_STYLE_ASSIGNMENT (( #857 ) ) ;
#441 = SURFACE_SIDE_STYLE ('',( #853 ) ) ;
#442 = ORIENTED_EDGE ( 'NONE', *, *, #655, .T. ) ;
#443 = ORIENTED_EDGE ( 'NONE', *, *, #235, .T. ) ;
#444 = VECTOR ( 'NONE', #146, 1000.000000000000200 ) ;
#445 = FILL_AREA_STYLE ('',( #400 ) ) ;
#446 = CARTESIAN_POINT ( 'NONE',  ( -11.43000000000000300, -3.799999999999999800, -7.620000000000000100 ) ) ;
#447 = PRESENTATION_LAYER_ASSIGNMENT (  '', '', ( #597 ) ) ;
#448 = CARTESIAN_POINT ( 'NONE',  ( -15.43807222580995700, 9.999999999999998200, 9.688072225809955600 ) ) ;
#449 = PRODUCT_DEFINITION_FORMATION_WITH_SPECIFIED_SOURCE ( 'ANY', '', #550, .NOT_KNOWN. ) ;
#450 = AXIS2_PLACEMENT_3D ( 'NONE', #824, #818, #8 ) ;
#451 = DIRECTION ( 'NONE',  ( 0.02616798426498028600, 0.9993150019883697600, -0.02616798426498074400 ) ) ;
#452 = ORIENTED_EDGE ( 'NONE', *, *, #294, .F. ) ;
#453 = ORIENTED_EDGE ( 'NONE', *, *, #889, .F. ) ;
#454 = DIRECTION ( 'NONE',  ( -0.0000000000000000000, -0.0000000000000000000, 1.000000000000000000 ) ) ;
#455 = ADVANCED_FACE ( 'NONE', ( #842 ), #483, .T. ) ;
#456 =( GEOMETRIC_REPRESENTATION_CONTEXT ( 3 ) GLOBAL_UNCERTAINTY_ASSIGNED_CONTEXT ( ( #344 ) ) GLOBAL_UNIT_ASSIGNED_CONTEXT ( ( #843, #326, #825 ) ) REPRESENTATION_CONTEXT ( 'NONE', 'WORKASPACE' ) );
#457 = CIRCLE ( 'NONE', #645, 0.2000000000000005100 ) ;
#458 = DIRECTION ( 'NONE',  ( 0.0000000000000000000, 0.0000000000000000000, -1.000000000000000000 ) ) ;
#459 = VECTOR ( 'NONE', #288, 1000.000000000000000 ) ;
#460 = DIRECTION ( 'NONE',  ( -0.02616798426497939800, -0.9993150019883699800, -0.02616798426497939800 ) ) ;
#461 = AXIS2_PLACEMENT_3D ( 'NONE', #335, #315, #218 ) ;
#462 = ORIENTED_EDGE ( 'NONE', *, *, #219, .T. ) ;
#463 = LINE ( 'NONE', #44, #223 ) ;
#464 = ORIENTED_EDGE ( 'NONE', *, *, #377, .T. ) ;
#465 = VERTEX_POINT ( 'NONE', #760 ) ;
#466 = SURFACE_STYLE_USAGE ( .BOTH. , #409 ) ;
#467 = AXIS2_PLACEMENT_3D ( 'NONE', #446, #858, #657 ) ;
#468 = CARTESIAN_POINT ( 'NONE',  ( -11.43000000000000300, 0.0000000000000000000, -7.620000000000000100 ) ) ;
#469 = AXIS2_PLACEMENT_3D ( 'NONE', #777, #771, #745 ) ;
#470 = VERTEX_POINT ( 'NONE', #700 ) ;
#471 = CIRCLE ( 'NONE', #114, 0.2999999999999999300 ) ;
#472 = ORIENTED_EDGE ( 'NONE', *, *, #113, .F. ) ;
#473 = CARTESIAN_POINT ( 'NONE',  ( -15.43807222580996100, 9.999999999999998200, -9.688072225809955600 ) ) ;
#474 =( NAMED_UNIT ( * ) SI_UNIT ( $, .STERADIAN. ) SOLID_ANGLE_UNIT ( ) );
#475 = DIRECTION ( 'NONE',  ( 0.02616798426497939100, 0.9993150019883697600, -0.02616798426497939400 ) ) ;
#476 = CARTESIAN_POINT ( 'NONE',  ( 6.350000000000003200, -3.500000000000000000, -7.320000000000000300 ) ) ;
#477 = LINE ( 'NONE', #312, #508 ) ;
#478 = DIRECTION ( 'NONE',  ( -2.602085213965204000E-014, 1.000000000000000000, 0.0000000000000000000 ) ) ;
#479 = AXIS2_PLACEMENT_3D ( 'NONE', #383, #166, #331 ) ;
#480 = ADVANCED_FACE ( 'NONE', ( #80 ), #62, .T. ) ;
#481 = ORIENTED_EDGE ( 'NONE', *, *, #67, .F. ) ;
#482 = MECHANICAL_DESIGN_GEOMETRIC_PRESENTATION_REPRESENTATION (  '', ( #394 ), #543 ) ;
#483 = PLANE ( 'NONE',  #240 ) ;
#484 = ORIENTED_EDGE ( 'NONE', *, *, #214, .F. ) ;
#485 = FACE_OUTER_BOUND ( 'NONE', #410, .T. ) ;
#486 = PRESENTATION_STYLE_ASSIGNMENT (( #427 ) ) ;
#487 = DIRECTION ( 'NONE',  ( 0.02616798426497939400, -0.9993150019883699800, 0.02616798426497939800 ) ) ;
#488 = ADVANCED_FACE ( 'NONE', ( #346 ), #792, .T. ) ;
#489 = DIRECTION ( 'NONE',  ( 0.0000000000000000000, 0.0000000000000000000, 1.000000000000000000 ) ) ;
#490 = UNCERTAINTY_MEASURE_WITH_UNIT (LENGTH_MEASURE( 1.000000000000000100E-005 ), #815, 'distance_accuracy_value', 'NONE');
#491 = CYLINDRICAL_SURFACE ( 'NONE', #177, 0.2000000000000008200 ) ;
#492 = CIRCLE ( 'NONE', #337, 0.2000000000000005100 ) ;
#493 = COLOUR_RGB ( '',0.7529411764705882200, 0.7529411764705882200, 0.7529411764705882200 ) ;
#494 = DIRECTION ( 'NONE',  ( -0.0000000000000000000, -1.000000000000000000, 0.0000000000000000000 ) ) ;
#495 = DIRECTION ( 'NONE',  ( 1.000000000000000000, 0.0000000000000000000, 0.0000000000000000000 ) ) ;
#496 = AXIS2_PLACEMENT_3D ( 'NONE', #283, #878, #82 ) ;
#497 = VERTEX_POINT ( 'NONE', #329 ) ;
#498 = VERTEX_POINT ( 'NONE', #476 ) ;
#499 = PRODUCT_RELATED_PRODUCT_CATEGORY ( 'part', '', ( #550 ) ) ;
#500 = FILL_AREA_STYLE ('',( #654 ) ) ;
#501 = ORIENTED_EDGE ( 'NONE', *, *, #362, .F. ) ;
#502 = CIRCLE ( 'NONE', #469, 0.2000000000000008400 ) ;
#503 = ORIENTED_EDGE ( 'NONE', *, *, #138, .T. ) ;
#504 = EDGE_CURVE ( 'NONE', #603, #547, #883, .T. ) ;
#505 = FILL_AREA_STYLE_COLOUR ( '', #107 ) ;
#506 = DIRECTION ( 'NONE',  ( -1.000000000000000000, -0.0000000000000000000, -0.0000000000000000000 ) ) ;
#507 = LINE ( 'NONE', #386, #233 ) ;
#508 = VECTOR ( 'NONE', #259, 1000.000000000000200 ) ;
#509 = STYLED_ITEM ( 'NONE', ( #440 ), #565 ) ;
#510 =( NAMED_UNIT ( * ) SI_UNIT ( $, .STERADIAN. ) SOLID_ANGLE_UNIT ( ) );
#511 = ORIENTED_EDGE ( 'NONE', *, *, #618, .F. ) ;
#512 = AXIS2_PLACEMENT_3D ( 'NONE', #448, #546, #420 ) ;
#513 = VERTEX_POINT ( 'NONE', #802 ) ;
#514 = VERTEX_POINT ( 'NONE', #754 ) ;
#515 = DIRECTION ( 'NONE',  ( 0.0000000000000000000, 1.000000000000000000, 0.0000000000000000000 ) ) ;
#516 = CARTESIAN_POINT ( 'NONE',  ( 11.43000000000000100, -3.500000000000000000, 7.919999999999999900 ) ) ;
#517 = SURFACE_SIDE_STYLE ('',( #292 ) ) ;
#518 = CARTESIAN_POINT ( 'NONE',  ( -15.63800369080507300, 10.00523538966157300, 9.688072225809955600 ) ) ;
#519 = PRESENTATION_LAYER_ASSIGNMENT (  '', '', ( #374 ) ) ;
#520 = DIRECTION ( 'NONE',  ( 1.000000000000000000, 0.0000000000000000000, 0.0000000000000000000 ) ) ;
#521 = UNCERTAINTY_MEASURE_WITH_UNIT (LENGTH_MEASURE( 1.000000000000000100E-005 ), #715, 'distance_accuracy_value', 'NONE');
#522 = CARTESIAN_POINT ( 'NONE',  ( -15.43807222580995900, 10.19999999999999900, 9.882903599994293100 ) ) ;
#523 = EDGE_LOOP ( 'NONE', ( #380, #277, #549, #614 ) ) ;
#524 = EDGE_LOOP ( 'NONE', ( #406, #540, #594 ) ) ;
#525 = AXIS2_PLACEMENT_3D ( 'NONE', #898, #888, #306 ) ;
#526 = FILL_AREA_STYLE ('',( #505 ) ) ;
#527 = EDGE_LOOP ( 'NONE', ( #941, #464, #564 ) ) ;
#528 = DIRECTION ( 'NONE',  ( -1.000000000000000000, 0.0000000000000000000, -0.0000000000000000000 ) ) ;
#529 =( NAMED_UNIT ( * ) SI_UNIT ( $, .STERADIAN. ) SOLID_ANGLE_UNIT ( ) );
#530 = UNCERTAINTY_MEASURE_WITH_UNIT (LENGTH_MEASURE( 1.000000000000000100E-005 ), #933, 'distance_accuracy_value', 'NONE');
#531 = CIRCLE ( 'NONE', #512, 0.2000000000000005100 ) ;
#532 = DIRECTION ( 'NONE',  ( 1.709087168450056000E-016, -0.0000000000000000000, -1.000000000000000000 ) ) ;
#533 = PRODUCT_DEFINITION_SHAPE ( 'NONE', 'NONE',  #170 ) ;
#534 = CARTESIAN_POINT ( 'NONE',  ( -15.43807222580995700, 10.00523538966157300, 9.888003690805069500 ) ) ;
#535 = CARTESIAN_POINT ( 'NONE',  ( 11.43000000000000100, -3.500000000000000000, 7.620000000000000100 ) ) ;
#536 =( NAMED_UNIT ( * ) PLANE_ANGLE_UNIT ( ) SI_UNIT ( $, .RADIAN. ) );
#537 = EDGE_LOOP ( 'NONE', ( #794 ) ) ;
#538 = COLOUR_RGB ( '',0.7529411764705882200, 0.7529411764705882200, 0.7529411764705882200 ) ;
#539 = DIRECTION ( 'NONE',  ( 1.000000000000000000, 2.602085213965204000E-014, 6.813799932923630900E-016 ) ) ;
#540 = ORIENTED_EDGE ( 'NONE', *, *, #200, .T. ) ;
#541 = VERTEX_POINT ( 'NONE', #71 ) ;
#542 = SURFACE_STYLE_FILL_AREA ( #445 ) ;
#543 =( GEOMETRIC_REPRESENTATION_CONTEXT ( 3 ) GLOBAL_UNCERTAINTY_ASSIGNED_CONTEXT ( ( #912 ) ) GLOBAL_UNIT_ASSIGNED_CONTEXT ( ( #691, #656, #585 ) ) REPRESENTATION_CONTEXT ( 'NONE', 'WORKASPACE' ) );
#544 = FACE_OUTER_BOUND ( 'NONE', #355, .T. ) ;
#545 = PRODUCT_CONTEXT ( 'NONE', #559, 'mechanical' ) ;
#546 = DIRECTION ( 'NONE',  ( 1.000000000000000000, 8.673617379884013400E-015, -2.271266644307877100E-016 ) ) ;
#547 = VERTEX_POINT ( 'NONE', #56 ) ;
#548 = VERTEX_POINT ( 'NONE', #158 ) ;
#549 = ORIENTED_EDGE ( 'NONE', *, *, #655, .F. ) ;
#550 = PRODUCT ( 'THM 6WI', 'THM 6WI', '', ( #646 ) ) ;
#551 = ORIENTED_EDGE ( 'NONE', *, *, #889, .T. ) ;
#552 =( GEOMETRIC_REPRESENTATION_CONTEXT ( 3 ) GLOBAL_UNCERTAINTY_ASSIGNED_CONTEXT ( ( #490 ) ) GLOBAL_UNIT_ASSIGNED_CONTEXT ( ( #815, #819, #341 ) ) REPRESENTATION_CONTEXT ( 'NONE', 'WORKASPACE' ) );
#553 = VERTEX_POINT ( 'NONE', #255 ) ;
#554 = PRODUCT_DEFINITION_FORMATION_WITH_SPECIFIED_SOURCE ( 'ANY', '', #91, .NOT_KNOWN. ) ;
#555 = EDGE_CURVE ( 'NONE', #787, #333, #5, .T. ) ;
#556 = CARTESIAN_POINT ( 'NONE',  ( 15.67842996461906500, 0.8263436644245867300, 10.12836142961418400 ) ) ;
#557 = AXIS2_PLACEMENT_3D ( 'NONE', #324, #833, #495 ) ;
#558 = CARTESIAN_POINT ( 'NONE',  ( 15.68630474372472600, 0.5203825934134328500, 9.936304743724733200 ) ) ;
#559 = APPLICATION_CONTEXT ( 'automotive_design' ) ;
#560 = DIRECTION ( 'NONE',  ( 0.0000000000000000000, -0.02617694830787302800, -0.9996573249755572600 ) ) ;
#561 = ORIENTED_EDGE ( 'NONE', *, *, #274, .T. ) ;
#562 = CARTESIAN_POINT ( 'NONE',  ( -15.43807222580995900, 9.999999999999998200, 9.688072225809955600 ) ) ;
#563 = EDGE_LOOP ( 'NONE', ( #689, #561, #580, #575 ) ) ;
#564 = ORIENTED_EDGE ( 'NONE', *, *, #699, .F. ) ;
#565 = ADVANCED_FACE ( 'NONE', ( #106 ), #412, .T. ) ;
#566 = DIRECTION ( 'NONE',  ( -0.9996573249755573700, 0.02617694830787321200, 0.0000000000000000000 ) ) ;
#567 = CARTESIAN_POINT ( 'NONE',  ( 15.43807222580995700, 9.999999999999998200, -9.688072225809955600 ) ) ;
#568 = UNCERTAINTY_MEASURE_WITH_UNIT (LENGTH_MEASURE( 1.000000000000000100E-005 ), #931, 'distance_accuracy_value', 'NONE');
#569 = ADVANCED_FACE ( 'NONE', ( #197 ), #780, .T. ) ;
#570 = PRODUCT_DEFINITION_CONTEXT ( 'detailed design', #921, 'design' ) ;
#571 = CLOSED_SHELL ( 'NONE', ( #97, #569, #455, #908, #104, #23, #168, #480, #417, #349, #35, #153, #415, #100, #434, #164, #915, #251, #863, #342, #904, #800, #29, #782, #633, #488, #847, #363, #244, #565 ) ) ;
#572 = MECHANICAL_DESIGN_GEOMETRIC_PRESENTATION_REPRESENTATION (  '', ( #374 ), #616 ) ;
#573 = ORIENTED_EDGE ( 'NONE', *, *, #152, .F. ) ;
#574 = EDGE_CURVE ( 'NONE', #399, #553, #160, .T. ) ;
#575 = ORIENTED_EDGE ( 'NONE', *, *, #555, .T. ) ;
#576 = STYLED_ITEM ( 'NONE', ( #64 ), #363 ) ;
#577 = DIRECTION ( 'NONE',  ( 0.02616798426497940100, -0.9993150019883699800, -0.02616798426497939800 ) ) ;
#578 =( NAMED_UNIT ( * ) PLANE_ANGLE_UNIT ( ) SI_UNIT ( $, .RADIAN. ) );
#579 = CARTESIAN_POINT ( 'NONE',  ( 15.67842996461907200, 0.8211082747630124000, -9.928429964619070300 ) ) ;
#580 = ORIENTED_EDGE ( 'NONE', *, *, #270, .T. ) ;
#581 = EDGE_LOOP ( 'NONE', ( #695 ) ) ;
#582 = VERTEX_POINT ( 'NONE', #920 ) ;
#583 = ORIENTED_EDGE ( 'NONE', *, *, #85, .F. ) ;
#584 = AXIS2_PLACEMENT_3D ( 'NONE', #811, #797, #685 ) ;
#585 =( NAMED_UNIT ( * ) SI_UNIT ( $, .STERADIAN. ) SOLID_ANGLE_UNIT ( ) );
#586 = DIRECTION ( 'NONE',  ( 0.0000000000000000000, 0.0000000000000000000, 1.000000000000000000 ) ) ;
#587 = PRESENTATION_LAYER_ASSIGNMENT (  '', '', ( #632 ) ) ;
#588 = FILL_AREA_STYLE_COLOUR ( '', #538 ) ;
#589 = EDGE_CURVE ( 'NONE', #278, #399, #761, .T. ) ;
#590 = CARTESIAN_POINT ( 'NONE',  ( 15.89999999999999700, 0.0000000000000000000, -9.950068535004886500 ) ) ;
#591 = ORIENTED_EDGE ( 'NONE', *, *, #45, .T. ) ;
#592 = SURFACE_STYLE_USAGE ( .BOTH. , #350 ) ;
#593 = EDGE_LOOP ( 'NONE', ( #823, #624, #94, #720 ) ) ;
#594 = ORIENTED_EDGE ( 'NONE', *, *, #690, .F. ) ;
#595 = COLOUR_RGB ( '',0.7529411764705882200, 0.7529411764705882200, 0.7529411764705882200 ) ;
#596 = CARTESIAN_POINT ( 'NONE',  ( -15.70020544075472600, -0.01046360931669418300, 9.950205440754723800 ) ) ;
#597 = STYLED_ITEM ( 'NONE', ( #87 ), #58 ) ;
#598 = DIRECTION ( 'NONE',  ( -1.709087168450056200E-016, -1.415683575819659300E-033, 1.000000000000000000 ) ) ;
#599 = CYLINDRICAL_SURFACE ( 'NONE', #880, 0.2000000000000008200 ) ;
#600 = PRODUCT_RELATED_PRODUCT_CATEGORY ( 'part', '', ( #91 ) ) ;
#601 = EDGE_LOOP ( 'NONE', ( #289 ) ) ;
#602 = CARTESIAN_POINT ( 'NONE',  ( 15.89999999999999900, 0.0000000000000000000, -10.06720229030754900 ) ) ;
#603 = VERTEX_POINT ( 'NONE', #749 ) ;
#604 = CYLINDRICAL_SURFACE ( 'NONE', #909, 0.2999999999999999300 ) ;
#605 = ORIENTED_EDGE ( 'NONE', *, *, #256, .T. ) ;
#606 = PRESENTATION_LAYER_ASSIGNMENT (  '', '', ( #509 ) ) ;
#607 = EDGE_CURVE ( 'NONE', #513, #603, #316, .T. ) ;
#608 = DIRECTION ( 'NONE',  ( -0.02616798426497939100, -0.9993150019883697600, -0.02616798426497939400 ) ) ;
#609 = CARTESIAN_POINT ( 'NONE',  ( 15.81720229030755000, 0.0000000000000000000, -10.14999999999999700 ) ) ;
#610 = DIRECTION ( 'NONE',  ( 0.0000000000000000000, 1.000000000000000000, 0.0000000000000000000 ) ) ;
#611 = EDGE_LOOP ( 'NONE', ( #443, #442, #484 ) ) ;
#612 = PRESENTATION_STYLE_ASSIGNMENT (( #734 ) ) ;
#613 = ORIENTED_EDGE ( 'NONE', *, *, #895, .T. ) ;
#614 = ORIENTED_EDGE ( 'NONE', *, *, #243, .F. ) ;
#615 = CARTESIAN_POINT ( 'NONE',  ( 15.70006853500489200, 0.0000000000000000000, -10.15000000000000000 ) ) ;
#616 =( GEOMETRIC_REPRESENTATION_CONTEXT ( 3 ) GLOBAL_UNCERTAINTY_ASSIGNED_CONTEXT ( ( #868 ) ) GLOBAL_UNIT_ASSIGNED_CONTEXT ( ( #171, #925, #205 ) ) REPRESENTATION_CONTEXT ( 'NONE', 'WORKASPACE' ) );
#617 = AXIS2_PLACEMENT_3D ( 'NONE', #418, #368, #630 ) ;
#618 = EDGE_CURVE ( 'NONE', #922, #278, #54, .T. ) ;
#619 = LINE ( 'NONE', #332, #459 ) ;
#620 = PRESENTATION_LAYER_ASSIGNMENT (  '', '', ( #576 ) ) ;
#621 = DIRECTION ( 'NONE',  ( 1.000000000000000000, 0.0000000000000000000, 0.0000000000000000000 ) ) ;
#622 = VECTOR ( 'NONE', #184, 1000.000000000000200 ) ;
#623 = DIRECTION ( 'NONE',  ( 0.0000000000000000000, 0.0000000000000000000, 1.000000000000000000 ) ) ;
#624 = ORIENTED_EDGE ( 'NONE', *, *, #634, .F. ) ;
#625 = ORIENTED_EDGE ( 'NONE', *, *, #404, .T. ) ;
#626 = FILL_AREA_STYLE_COLOUR ( '', #14 ) ;
#627 = VERTEX_POINT ( 'NONE', #279 ) ;
#628 = EDGE_LOOP ( 'NONE', ( #687, #649, #679, #295 ) ) ;
#629 = DIRECTION ( 'NONE',  ( 0.0000000000000000000, 0.0000000000000000000, 1.000000000000000000 ) ) ;
#630 = DIRECTION ( 'NONE',  ( 0.0000000000000000000, 0.0000000000000000000, -1.000000000000000000 ) ) ;
#631 = CARTESIAN_POINT ( 'NONE',  ( 15.70006853500487800, 0.0000000000000000000, 10.15000000000000000 ) ) ;
#632 = STYLED_ITEM ( 'NONE', ( #75 ), #800 ) ;
#633 = ADVANCED_FACE ( 'NONE', ( #934 ), #186, .T. ) ;
#634 = EDGE_CURVE ( 'NONE', #547, #413, #77, .T. ) ;
#635 = ORIENTED_EDGE ( 'NONE', *, *, #243, .T. ) ;
#636 = VECTOR ( 'NONE', #770, 1000.000000000000200 ) ;
#637 = EDGE_LOOP ( 'NONE', ( #871, #501, #839, #511 ) ) ;
#638 = VERTEX_POINT ( 'NONE', #365 ) ;
#639 = PRESENTATION_STYLE_ASSIGNMENT (( #592 ) ) ;
#640 = DIRECTION ( 'NONE',  ( -0.9996573249755571500, -0.02617694830787410700, 0.0000000000000000000 ) ) ;
#641 = CIRCLE ( 'NONE', #584, 0.2000000000000005100 ) ;
#642 = VECTOR ( 'NONE', #747, 1000.000000000000000 ) ;
#643 = FILL_AREA_STYLE ('',( #236 ) ) ;
#644 = DIRECTION ( 'NONE',  ( -0.02616798426498029300, 0.9993150019883698700, 0.02616798426497960900 ) ) ;
#645 = AXIS2_PLACEMENT_3D ( 'NONE', #232, #272, #156 ) ;
#646 = PRODUCT_CONTEXT ( 'NONE', #33, 'mechanical' ) ;
#647 = ORIENTED_EDGE ( 'NONE', *, *, #389, .F. ) ;
#648 = EDGE_CURVE ( 'NONE', #413, #513, #711, .T. ) ;
#649 = ORIENTED_EDGE ( 'NONE', *, *, #45, .F. ) ;
#650 = DIRECTION ( 'NONE',  ( -0.02616798426497939800, -0.9993150019883699800, 0.02616798426497939800 ) ) ;
#651 = ORIENTED_EDGE ( 'NONE', *, *, #85, .T. ) ;
#652 = DIRECTION ( 'NONE',  ( -1.000000000000000000, -0.0000000000000000000, -0.0000000000000000000 ) ) ;
#653 = MECHANICAL_DESIGN_GEOMETRIC_PRESENTATION_REPRESENTATION (  '', ( #509 ), #703 ) ;
#654 = FILL_AREA_STYLE_COLOUR ( '', #15 ) ;
#655 = EDGE_CURVE ( 'NONE', #250, #399, #866, .T. ) ;
#656 =( NAMED_UNIT ( * ) PLANE_ANGLE_UNIT ( ) SI_UNIT ( $, .RADIAN. ) );
#657 = DIRECTION ( 'NONE',  ( 0.0000000000000000000, 0.0000000000000000000, 1.000000000000000000 ) ) ;
#658 = DIRECTION ( 'NONE',  ( 1.000000000000000000, 0.0000000000000000000, 0.0000000000000000000 ) ) ;
#659 = ORIENTED_EDGE ( 'NONE', *, *, #90, .T. ) ;
#660 = FACE_OUTER_BOUND ( 'NONE', #753, .T. ) ;
#661 = DIRECTION ( 'NONE',  ( 0.0000000000000000000, -0.0000000000000000000, 1.000000000000000000 ) ) ;
#662 = SURFACE_STYLE_USAGE ( .BOTH. , #441 ) ;
#663 = VERTEX_POINT ( 'NONE', #928 ) ;
#664 = ORIENTED_EDGE ( 'NONE', *, *, #165, .T. ) ;
#665 = CARTESIAN_POINT ( 'NONE',  ( 15.67842996461907200, 0.8263436644245870700, -10.12836142961418400 ) ) ;
#666 = FILL_AREA_STYLE ('',( #226 ) ) ;
#667 = DIRECTION ( 'NONE',  ( -8.676590630790410900E-015, -0.0000000000000000000, 1.000000000000000000 ) ) ;
#668 = PRESENTATION_LAYER_ASSIGNMENT (  '', '', ( #402 ) ) ;
#669 =( BOUNDED_CURVE ( )  B_SPLINE_CURVE ( 3, ( #837, #675, #692, #927 ),
 .UNSPECIFIED., .F., .T. ) 
 B_SPLINE_CURVE_WITH_KNOTS ( ( 4, 4 ),
 ( 5.498129760120305900, 7.068240854238857700 ),
 .UNSPECIFIED. ) 
 CURVE ( )  GEOMETRIC_REPRESENTATION_ITEM ( )  RATIONAL_B_SPLINE_CURVE ( ( 1.000000000000000000, 0.8048993373437817200, 0.8048993373437817200, 1.000000000000000000 ) ) 
 REPRESENTATION_ITEM ( '' )  );
#670 = CARTESIAN_POINT ( 'NONE',  ( 15.43807222580995000, 9.999999999999998200, 9.688072225809955600 ) ) ;
#671 = FACE_OUTER_BOUND ( 'NONE', #124, .T. ) ;
#672 =( GEOMETRIC_REPRESENTATION_CONTEXT ( 3 ) GLOBAL_UNCERTAINTY_ASSIGNED_CONTEXT ( ( #190 ) ) GLOBAL_UNIT_ASSIGNED_CONTEXT ( ( #751, #388, #303 ) ) REPRESENTATION_CONTEXT ( 'NONE', 'WORKASPACE' ) );
#673 = CARTESIAN_POINT ( 'NONE',  ( -15.43807222580996100, 9.999999999999998200, 9.688072225809955600 ) ) ;
#674 = EDGE_CURVE ( 'NONE', #263, #263, #788, .T. ) ;
#675 = CARTESIAN_POINT ( 'NONE',  ( -15.89999999999999900, 0.0000000000000000000, -10.06720229030754900 ) ) ;
#676 = VERTEX_POINT ( 'NONE', #805 ) ;
#677 = DIRECTION ( 'NONE',  ( 1.000000000000000000, 0.0000000000000000000, 0.0000000000000000000 ) ) ;
#678 = MECHANICAL_DESIGN_GEOMETRIC_PRESENTATION_REPRESENTATION (  '', ( #576 ), #723 ) ;
#679 = ORIENTED_EDGE ( 'NONE', *, *, #235, .F. ) ;
#680 = SPHERICAL_SURFACE ( 'NONE', #428, 0.2000000000000000100 ) ;
#681 = DIRECTION ( 'NONE',  ( 0.9996573249755572600, 0.02617694830787302800, 0.0000000000000000000 ) ) ;
#682 = CIRCLE ( 'NONE', #435, 0.2000000000000008400 ) ;
#683 = COLOUR_RGB ( '',0.7529411764705882200, 0.7529411764705882200, 0.7529411764705882200 ) ;
#684 = APPLICATION_PROTOCOL_DEFINITION ( 'draft international standard', 'automotive_design', 1998, #559 ) ;
#685 = DIRECTION ( 'NONE',  ( -8.673617379884013400E-015, 0.0000000000000000000, 1.000000000000000000 ) ) ;
#686 = ORIENTED_EDGE ( 'NONE', *, *, #618, .T. ) ;
#687 = ORIENTED_EDGE ( 'NONE', *, *, #875, .T. ) ;
#688 = AXIS2_PLACEMENT_3D ( 'NONE', #261, #79, #489 ) ;
#689 = ORIENTED_EDGE ( 'NONE', *, *, #389, .T. ) ;
#690 = EDGE_CURVE ( 'NONE', #541, #413, #149, .T. ) ;
#691 =( LENGTH_UNIT ( ) NAMED_UNIT ( * ) SI_UNIT ( .MILLI., .METRE. ) );
#692 = CARTESIAN_POINT ( 'NONE',  ( -15.81720229030755000, 0.0000000000000000000, -10.15000000000000000 ) ) ;
#693 = DIRECTION ( 'NONE',  ( 1.000000000000000000, 0.0000000000000000000, 0.0000000000000000000 ) ) ;
#694 = UNCERTAINTY_MEASURE_WITH_UNIT (LENGTH_MEASURE( 1.000000000000000100E-005 ), #416, 'distance_accuracy_value', 'NONE');
#695 = ORIENTED_EDGE ( 'NONE', *, *, #165, .F. ) ;
#696 = VERTEX_POINT ( 'NONE', #516 ) ;
#697 = ORIENTED_EDGE ( 'NONE', *, *, #574, .T. ) ;
#698 = ORIENTED_EDGE ( 'NONE', *, *, #607, .T. ) ;
#699 = EDGE_CURVE ( 'NONE', #278, #547, #492, .T. ) ;
#700 = CARTESIAN_POINT ( 'NONE',  ( -8.890000000000002300, 0.0000000000000000000, -7.320000000000000300 ) ) ;
#701 =( NAMED_UNIT ( * ) SI_UNIT ( $, .STERADIAN. ) SOLID_ANGLE_UNIT ( ) );
#702 = CARTESIAN_POINT ( 'NONE',  ( 15.43807222580995400, 9.999999999999998200, -9.688072225809955600 ) ) ;
#703 =( GEOMETRIC_REPRESENTATION_CONTEXT ( 3 ) GLOBAL_UNCERTAINTY_ASSIGNED_CONTEXT ( ( #530 ) ) GLOBAL_UNIT_ASSIGNED_CONTEXT ( ( #933, #881, #474 ) ) REPRESENTATION_CONTEXT ( 'NONE', 'WORKASPACE' ) );
#704 =( NAMED_UNIT ( * ) PLANE_ANGLE_UNIT ( ) SI_UNIT ( $, .RADIAN. ) );
#705 = ORIENTED_EDGE ( 'NONE', *, *, #130, .F. ) ;
#706 = EDGE_LOOP ( 'NONE', ( #744 ) ) ;
#707 = FACE_OUTER_BOUND ( 'NONE', #537, .T. ) ;
#708 = EDGE_LOOP ( 'NONE', ( #296 ) ) ;
#709 =( LENGTH_UNIT ( ) NAMED_UNIT ( * ) SI_UNIT ( .MILLI., .METRE. ) );
#710 = FACE_OUTER_BOUND ( 'NONE', #637, .T. ) ;
#711 = LINE ( 'NONE', #257, #642 ) ;
#712 = SURFACE_STYLE_USAGE ( .BOTH. , #718 ) ;
#713 = PRESENTATION_STYLE_ASSIGNMENT (( #936 ) ) ;
#714 = CARTESIAN_POINT ( 'NONE',  ( 11.43000000000000100, -3.799999999999999800, 7.620000000000000100 ) ) ;
#715 =( LENGTH_UNIT ( ) NAMED_UNIT ( * ) SI_UNIT ( .MILLI., .METRE. ) );
#716 = SURFACE_STYLE_FILL_AREA ( #221 ) ;
#717 = ORIENTED_EDGE ( 'NONE', *, *, #504, .T. ) ;
#718 = SURFACE_SIDE_STYLE ('',( #46 ) ) ;
#719 = ORIENTED_EDGE ( 'NONE', *, *, #634, .T. ) ;
#720 = ORIENTED_EDGE ( 'NONE', *, *, #330, .F. ) ;
#721 = DIRECTION ( 'NONE',  ( 0.0000000000000000000, 1.000000000000000000, -0.0000000000000000000 ) ) ;
#722 = CYLINDRICAL_SURFACE ( 'NONE', #688, 0.2999999999999999300 ) ;
#723 =( GEOMETRIC_REPRESENTATION_CONTEXT ( 3 ) GLOBAL_UNCERTAINTY_ASSIGNED_CONTEXT ( ( #313 ) ) GLOBAL_UNIT_ASSIGNED_CONTEXT ( ( #709, #704, #701 ) ) REPRESENTATION_CONTEXT ( 'NONE', 'WORKASPACE' ) );
#724 = CARTESIAN_POINT ( 'NONE',  ( -15.90000000000000400, 0.0000000000000000000, 10.15000000000000000 ) ) ;
#725 = SPHERICAL_SURFACE ( 'NONE', #914, 0.2999999999999999900 ) ;
#726 = CARTESIAN_POINT ( 'NONE',  ( 11.43000000000000100, 0.0000000000000000000, 7.620000000000000100 ) ) ;
#727 = SHAPE_DEFINITION_REPRESENTATION ( #533, #155 ) ;
#728 = EDGE_LOOP ( 'NONE', ( #321 ) ) ;
#729 = SURFACE_STYLE_FILL_AREA ( #392 ) ;
#730 = FILL_AREA_STYLE ('',( #736 ) ) ;
#731 = EDGE_LOOP ( 'NONE', ( #775 ) ) ;
#732 = ORIENTED_EDGE ( 'NONE', *, *, #55, .T. ) ;
#733 = CARTESIAN_POINT ( 'NONE',  ( -15.90000000000000400, 0.0000000000000000000, -10.15000000000000000 ) ) ;
#734 = SURFACE_STYLE_USAGE ( .BOTH. , #373 ) ;
#735 = MECHANICAL_DESIGN_GEOMETRIC_PRESENTATION_REPRESENTATION (  '', ( #632 ), #779 ) ;
#736 = FILL_AREA_STYLE_COLOUR ( '', #872 ) ;
#737 = DIRECTION ( 'NONE',  ( -0.0000000000000000000, 1.000000000000000000, -0.0000000000000000000 ) ) ;
#738 = CARTESIAN_POINT ( 'NONE',  ( -8.890000000000002300, 0.0000000000000000000, -7.620000000000000100 ) ) ;
#739 = DIRECTION ( 'NONE',  ( 0.0000000000000000000, 0.0000000000000000000, 1.000000000000000000 ) ) ;
#740 = CARTESIAN_POINT ( 'NONE',  ( -11.43000000000000300, -3.500000000000000000, 7.620000000000000100 ) ) ;
#741 = DIRECTION ( 'NONE',  ( 0.9996573249755573700, 0.02617694830787321200, 1.708501506962833200E-016 ) ) ;
#742 = CARTESIAN_POINT ( 'NONE',  ( 15.43807222580995000, 9.999999999999998200, 9.688072225809955600 ) ) ;
#743 = ORIENTED_EDGE ( 'NONE', *, *, #200, .F. ) ;
#744 = ORIENTED_EDGE ( 'NONE', *, *, #674, .F. ) ;
#745 = DIRECTION ( 'NONE',  ( 0.0000000000000000000, 0.02617694830787410700, 0.9996573249755571500 ) ) ;
#746 = ORIENTED_EDGE ( 'NONE', *, *, #181, .F. ) ;
#747 = DIRECTION ( 'NONE',  ( -1.000000000000000000, 0.0000000000000000000, -0.0000000000000000000 ) ) ;
#748 = AXIS2_PLACEMENT_3D ( 'NONE', #852, #387, #42 ) ;
#749 = CARTESIAN_POINT ( 'NONE',  ( -15.43807222580995900, 10.19999999999999900, 9.688072225809955600 ) ) ;
#750 = FILL_AREA_STYLE_COLOUR ( '', #901 ) ;
#751 =( LENGTH_UNIT ( ) NAMED_UNIT ( * ) SI_UNIT ( .MILLI., .METRE. ) );
#752 = UNCERTAINTY_MEASURE_WITH_UNIT (LENGTH_MEASURE( 1.000000000000000100E-005 ), #767, 'distance_accuracy_value', 'NONE');
#753 = EDGE_LOOP ( 'NONE', ( #664 ) ) ;
#754 = CARTESIAN_POINT ( 'NONE',  ( -15.90000000000000400, 0.0000000000000000000, -9.950068535004888300 ) ) ;
#755 = EDGE_LOOP ( 'NONE', ( #732 ) ) ;
#756 = EDGE_LOOP ( 'NONE', ( #651, #686, #275, #697 ) ) ;
#757 = EDGE_LOOP ( 'NONE', ( #432, #551, #419, #247 ) ) ;
#758 = FACE_OUTER_BOUND ( 'NONE', #902, .T. ) ;
#759 = CIRCLE ( 'NONE', #461, 0.2000000000000008400 ) ;
#760 = CARTESIAN_POINT ( 'NONE',  ( -15.70006853500489200, 0.0000000000000000000, -10.15000000000000000 ) ) ;
#761 = LINE ( 'NONE', #910, #433 ) ;
#762 = ORIENTED_EDGE ( 'NONE', *, *, #67, .T. ) ;
#763 = EDGE_LOOP ( 'NONE', ( #698, #717, #719, #774 ) ) ;
#764 = AXIS2_PLACEMENT_3D ( 'NONE', #111, #737, #940 ) ;
#765 = ORIENTED_EDGE ( 'NONE', *, *, #113, .T. ) ;
#766 = DIRECTION ( 'NONE',  ( 0.0000000000000000000, 0.0000000000000000000, 1.000000000000000000 ) ) ;
#767 =( LENGTH_UNIT ( ) NAMED_UNIT ( * ) SI_UNIT ( .MILLI., .METRE. ) );
#768 = FACE_OUTER_BOUND ( 'NONE', #336, .T. ) ;
#769 = AXIS2_PLACEMENT_3D ( 'NONE', #670, #661, #658 ) ;
#770 = DIRECTION ( 'NONE',  ( -0.02616798426497939400, 0.9993150019883697600, 0.02616798426497939400 ) ) ;
#771 = DIRECTION ( 'NONE',  ( -0.02616798426498006000, 0.9993150019883697600, -0.02616798426498028900 ) ) ;
#772 = CARTESIAN_POINT ( 'NONE',  ( -11.43000000000000300, 0.0000000000000000000, -7.320000000000000300 ) ) ;
#773 = ORIENTED_EDGE ( 'NONE', *, *, #159, .F. ) ;
#774 = ORIENTED_EDGE ( 'NONE', *, *, #648, .T. ) ;
#775 = ORIENTED_EDGE ( 'NONE', *, *, #314, .F. ) ;
#776 = AXIS2_PLACEMENT_3D ( 'NONE', #1, #532, #95 ) ;
#777 = CARTESIAN_POINT ( 'NONE',  ( 15.43807222580995000, 9.999999999999998200, 9.688072225809955600 ) ) ;
#778 = DIRECTION ( 'NONE',  ( 0.0000000000000000000, 0.0000000000000000000, 1.000000000000000000 ) ) ;
#779 =( GEOMETRIC_REPRESENTATION_CONTEXT ( 3 ) GLOBAL_UNCERTAINTY_ASSIGNED_CONTEXT ( ( #521 ) ) GLOBAL_UNIT_ASSIGNED_CONTEXT ( ( #715, #376, #870 ) ) REPRESENTATION_CONTEXT ( 'NONE', 'WORKASPACE' ) );
#780 = PLANE ( 'NONE',  #890 ) ;
#781 = CARTESIAN_POINT ( 'NONE',  ( 15.89999999999999300, 0.0000000000000000000, 10.06720229030755200 ) ) ;
#782 = ADVANCED_FACE ( 'NONE', ( #544, #768 ), #722, .T. ) ;
#783 = EDGE_LOOP ( 'NONE', ( #591, #613, #605, #635 ) ) ;
#784 = DIRECTION ( 'NONE',  ( 0.0000000000000000000, 1.000000000000000000, 0.0000000000000000000 ) ) ;
#785 = AXIS2_PLACEMENT_3D ( 'NONE', #738, #293, #179 ) ;
#786 = ORIENTED_EDGE ( 'NONE', *, *, #159, .T. ) ;
#787 = VERTEX_POINT ( 'NONE', #892 ) ;
#788 = CIRCLE ( 'NONE', #217, 0.2999999999999999300 ) ;
#789 = CARTESIAN_POINT ( 'NONE',  ( 15.88623620871983800, 0.5256179830750075100, 9.936304743724733200 ) ) ;
#790 = AXIS2_PLACEMENT_3D ( 'NONE', #323, #304, #284 ) ;
#791 = DIRECTION ( 'NONE',  ( 0.0000000000000000000, 0.02617694830787321200, -0.9996573249755573700 ) ) ;
#792 = SPHERICAL_SURFACE ( 'NONE', #557, 0.2999999999999999900 ) ;
#793 = CARTESIAN_POINT ( 'NONE',  ( -11.43000000000000300, -3.500000000000000000, -7.620000000000000100 ) ) ;
#794 = ORIENTED_EDGE ( 'NONE', *, *, #55, .F. ) ;
#795 = PRESENTATION_STYLE_ASSIGNMENT (( #466 ) ) ;
#796 = VECTOR ( 'NONE', #851, 1000.000000000000000 ) ;
#797 = DIRECTION ( 'NONE',  ( -1.000000000000000000, 0.0000000000000000000, -8.676590630790486700E-015 ) ) ;
#798 = EDGE_LOOP ( 'NONE', ( #356, #381, #746, #453 ) ) ;
#799 = COLOUR_RGB ( '',0.7529411764705882200, 0.7529411764705882200, 0.7529411764705882200 ) ;
#800 = ADVANCED_FACE ( 'NONE', ( #758, #98 ), #604, .T. ) ;
#801 = ORIENTED_EDGE ( 'NONE', *, *, #270, .F. ) ;
#802 = CARTESIAN_POINT ( 'NONE',  ( -15.43807222580995900, 10.19999999999999900, -9.688072225809955600 ) ) ;
#803 = AXIS2_PLACEMENT_3D ( 'NONE', #793, #784, #92 ) ;
#804 = DIRECTION ( 'NONE',  ( 0.0000000000000000000, 0.9996573249755572600, 0.02617694830787320800 ) ) ;
#805 = CARTESIAN_POINT ( 'NONE',  ( 11.43000000000000100, 0.0000000000000000000, -7.320000000000000300 ) ) ;
#806 = SPHERICAL_SURFACE ( 'NONE', #830, 0.2000000000000000100 ) ;
#807 =( NAMED_UNIT ( * ) SI_UNIT ( $, .STERADIAN. ) SOLID_ANGLE_UNIT ( ) );
#808 = CARTESIAN_POINT ( 'NONE',  ( -15.63800369080507300, 10.00523538966157300, -9.688072225809955600 ) ) ;
#809 = FACE_OUTER_BOUND ( 'NONE', #225, .T. ) ;
#810 = DIRECTION ( 'NONE',  ( -0.02616798426497939400, -0.9993150019883697600, 0.02616798426497939100 ) ) ;
#811 = CARTESIAN_POINT ( 'NONE',  ( -15.43807222580995900, 9.999999999999998200, -9.688072225809955600 ) ) ;
#812 = EDGE_LOOP ( 'NONE', ( #481 ) ) ;
#813 =( NAMED_UNIT ( * ) SI_UNIT ( $, .STERADIAN. ) SOLID_ANGLE_UNIT ( ) );
#814 = AXIS2_PLACEMENT_3D ( 'NONE', #724, #929, #327 ) ;
#815 =( LENGTH_UNIT ( ) NAMED_UNIT ( * ) SI_UNIT ( .MILLI., .METRE. ) );
#816 = SURFACE_SIDE_STYLE ('',( #729 ) ) ;
#817 = CYLINDRICAL_SURFACE ( 'NONE', #88, 0.2000000000000005100 ) ;
#818 = DIRECTION ( 'NONE',  ( -0.0000000000000000000, 1.000000000000000000, -0.0000000000000000000 ) ) ;
#819 =( NAMED_UNIT ( * ) PLANE_ANGLE_UNIT ( ) SI_UNIT ( $, .RADIAN. ) );
#820 = DIRECTION ( 'NONE',  ( 0.02616798426497938700, -0.9993150019883697600, 0.02616798426497939400 ) ) ;
#821 = AXIS2_PLACEMENT_3D ( 'NONE', #78, #893, #142 ) ;
#822 = AXIS2_PLACEMENT_3D ( 'NONE', #740, #515, #693 ) ;
#823 = ORIENTED_EDGE ( 'NONE', *, *, #690, .T. ) ;
#824 = CARTESIAN_POINT ( 'NONE',  ( 6.350000000000003200, -3.500000000000000000, -7.620000000000000100 ) ) ;
#825 =( NAMED_UNIT ( * ) SI_UNIT ( $, .STERADIAN. ) SOLID_ANGLE_UNIT ( ) );
#826 = FACE_OUTER_BOUND ( 'NONE', #61, .T. ) ;
#827 = DIRECTION ( 'NONE',  ( 0.0000000000000000000, -0.02617694830787310400, -0.9996573249755572600 ) ) ;
#828 = AXIS2_PLACEMENT_3D ( 'NONE', #535, #395, #59 ) ;
#829 = FACE_OUTER_BOUND ( 'NONE', #213, .T. ) ;
#830 = AXIS2_PLACEMENT_3D ( 'NONE', #562, #73, #81 ) ;
#831 = PRESENTATION_LAYER_ASSIGNMENT (  '', '', ( #873 ) ) ;
#832 = CYLINDRICAL_SURFACE ( 'NONE', #467, 0.2999999999999999300 ) ;
#833 = DIRECTION ( 'NONE',  ( 0.0000000000000000000, 1.000000000000000000, 0.0000000000000000000 ) ) ;
#834 = AXIS2_PLACEMENT_3D ( 'NONE', #596, #650, #827 ) ;
#835 =( LENGTH_UNIT ( ) NAMED_UNIT ( * ) SI_UNIT ( .MILLI., .METRE. ) );
#836 = CIRCLE ( 'NONE', #785, 0.2999999999999999300 ) ;
#837 = CARTESIAN_POINT ( 'NONE',  ( -15.90000000000000400, 0.0000000000000000000, -9.950068535004888300 ) ) ;
#838 = CARTESIAN_POINT ( 'NONE',  ( 11.43000000000000100, -3.500000000000000000, 7.620000000000000100 ) ) ;
#839 = ORIENTED_EDGE ( 'NONE', *, *, #358, .F. ) ;
#840 = SURFACE_STYLE_USAGE ( .BOTH. , #887 ) ;
#841 = DIRECTION ( 'NONE',  ( 0.0000000000000000000, 0.0000000000000000000, 1.000000000000000000 ) ) ;
#842 = FACE_OUTER_BOUND ( 'NONE', #783, .T. ) ;
#843 =( LENGTH_UNIT ( ) NAMED_UNIT ( * ) SI_UNIT ( .MILLI., .METRE. ) );
#844 = CARTESIAN_POINT ( 'NONE',  ( 0.0000000000000000000, 0.0000000000000000000, 0.0000000000000000000 ) ) ;
#845 = STYLED_ITEM ( 'NONE', ( #486 ), #633 ) ;
#846 = DIRECTION ( 'NONE',  ( -0.0000000000000000000, -1.000000000000000000, 0.0000000000000000000 ) ) ;
#847 = ADVANCED_FACE ( 'NONE', ( #430 ), #144, .T. ) ;
#848 = AXIS2_PLACEMENT_3D ( 'NONE', #11, #65, #74 ) ;
#849 = ORIENTED_EDGE ( 'NONE', *, *, #172, .F. ) ;
#850 = CARTESIAN_POINT ( 'NONE',  ( -15.81720229030755000, 0.0000000000000000000, 10.15000000000000000 ) ) ;
#851 = DIRECTION ( 'NONE',  ( 1.000000000000000000, -0.0000000000000000000, -0.0000000000000000000 ) ) ;
#852 = CARTESIAN_POINT ( 'NONE',  ( 0.0000000000000000000, 10.19999999999999900, 0.0000000000000000000 ) ) ;
#853 = SURFACE_STYLE_FILL_AREA ( #500 ) ;
#854 = AXIS2_PLACEMENT_3D ( 'NONE', #297, #89, #621 ) ;
#855 = CARTESIAN_POINT ( 'NONE',  ( 15.43807222580995200, 9.999999999999998200, -9.688072225809955600 ) ) ;
#856 = VERTEX_POINT ( 'NONE', #68 ) ;
#857 = SURFACE_STYLE_USAGE ( .BOTH. , #517 ) ;
#858 = DIRECTION ( 'NONE',  ( -0.0000000000000000000, 1.000000000000000000, -0.0000000000000000000 ) ) ;
#859 = FACE_BOUND ( 'NONE', #438, .T. ) ;
#860 = PLANE ( 'NONE',  #748 ) ;
#861 = PRESENTATION_LAYER_ASSIGNMENT (  '', '', ( #299 ) ) ;
#862 = APPLICATION_PROTOCOL_DEFINITION ( 'draft international standard', 'automotive_design', 1998, #33 ) ;
#863 = ADVANCED_FACE ( 'NONE', ( #903, #334 ), #832, .T. ) ;
#864 = CYLINDRICAL_SURFACE ( 'NONE', #834, 0.2000000000000008200 ) ;
#865 = CIRCLE ( 'NONE', #821, 0.2999999999999999300 ) ;
#866 = CIRCLE ( 'NONE', #116, 0.2000000000000008400 ) ;
#867 = DIRECTION ( 'NONE',  ( -1.000000000000000000, 0.0000000000000000000, -8.673617379884013400E-015 ) ) ;
#868 = UNCERTAINTY_MEASURE_WITH_UNIT (LENGTH_MEASURE( 1.000000000000000100E-005 ), #171, 'distance_accuracy_value', 'NONE');
#869 = CARTESIAN_POINT ( 'NONE',  ( 11.43000000000000100, 0.0000000000000000000, -7.620000000000000100 ) ) ;
#870 =( NAMED_UNIT ( * ) SI_UNIT ( $, .STERADIAN. ) SOLID_ANGLE_UNIT ( ) );
#871 = ORIENTED_EDGE ( 'NONE', *, *, #90, .F. ) ;
#872 = COLOUR_RGB ( '',0.7529411764705882200, 0.7529411764705882200, 0.7529411764705882200 ) ;
#873 = STYLED_ITEM ( 'NONE', ( #209 ), #847 ) ;
#874 = COLOUR_RGB ( '',0.7529411764705882200, 0.7529411764705882200, 0.7529411764705882200 ) ;
#875 = EDGE_CURVE ( 'NONE', #513, #378, #52, .T. ) ;
#876 = CYLINDRICAL_SURFACE ( 'NONE', #137, 0.2000000000000008200 ) ;
#877 = FACE_OUTER_BOUND ( 'NONE', #611, .T. ) ;
#878 = DIRECTION ( 'NONE',  ( -0.0000000000000000000, 1.000000000000000000, -0.0000000000000000000 ) ) ;
#879 = FACE_OUTER_BOUND ( 'NONE', #798, .T. ) ;
#880 = AXIS2_PLACEMENT_3D ( 'NONE', #112, #460, #83 ) ;
#881 =( NAMED_UNIT ( * ) PLANE_ANGLE_UNIT ( ) SI_UNIT ( $, .RADIAN. ) );
#882 = VERTEX_POINT ( 'NONE', #212 ) ;
#883 = LINE ( 'NONE', #340, #796 ) ;
#884 = CARTESIAN_POINT ( 'NONE',  ( 15.70006853500487800, 0.0000000000000000000, 10.15000000000000000 ) ) ;
#885 = MECHANICAL_DESIGN_GEOMETRIC_PRESENTATION_REPRESENTATION (  '', ( #402 ), #372 ) ;
#886 = CARTESIAN_POINT ( 'NONE',  ( -15.43807222580995900, 9.999999999999998200, -9.688072225809955600 ) ) ;
#887 = SURFACE_SIDE_STYLE ('',( #16 ) ) ;
#888 = DIRECTION ( 'NONE',  ( -0.0000000000000000000, 1.000000000000000000, -0.0000000000000000000 ) ) ;
#889 = EDGE_CURVE ( 'NONE', #663, #541, #248, .T. ) ;
#890 = AXIS2_PLACEMENT_3D ( 'NONE', #49, #791, #804 ) ;
#891 = VECTOR ( 'NONE', #820, 1000.000000000000200 ) ;
#892 = CARTESIAN_POINT ( 'NONE',  ( 15.43807222580995700, 10.00523538966157300, -9.888003690805069500 ) ) ;
#893 = DIRECTION ( 'NONE',  ( -0.0000000000000000000, 1.000000000000000000, -0.0000000000000000000 ) ) ;
#894 =( BOUNDED_CURVE ( )  B_SPLINE_CURVE ( 3, ( #43, #781, #131, #884 ),
 .UNSPECIFIED., .F., .T. ) 
 B_SPLINE_CURVE_WITH_KNOTS ( ( 4, 4 ),
 ( 5.498129760120305900, 7.068240854238892400 ),
 .UNSPECIFIED. ) 
 CURVE ( )  GEOMETRIC_REPRESENTATION_ITEM ( )  RATIONAL_B_SPLINE_CURVE ( ( 1.000000000000000000, 0.8048993373437736100, 0.8048993373437736100, 1.000000000000000000 ) ) 
 REPRESENTATION_ITEM ( '' )  );
#895 = EDGE_CURVE ( 'NONE', #378, #514, #463, .T. ) ;
#896 = DIRECTION ( 'NONE',  ( 1.000000000000000000, 0.0000000000000000000, 0.0000000000000000000 ) ) ;
#897 = SURFACE_SIDE_STYLE ('',( #96 ) ) ;
#898 = CARTESIAN_POINT ( 'NONE',  ( 6.350000000000003200, -3.799999999999999800, -7.620000000000000100 ) ) ;
#899 = PLANE ( 'NONE',  #262 ) ;
#900 = FILL_AREA_STYLE_COLOUR ( '', #683 ) ;
#901 = COLOUR_RGB ( '',0.7529411764705882200, 0.7529411764705882200, 0.7529411764705882200 ) ;
#902 = EDGE_LOOP ( 'NONE', ( #765 ) ) ;
#903 = FACE_OUTER_BOUND ( 'NONE', #339, .T. ) ;
#904 = ADVANCED_FACE ( 'NONE', ( #809, #660 ), #352, .T. ) ;
#905 = CARTESIAN_POINT ( 'NONE',  ( -15.70020544075472600, -0.005228219655119577600, 10.15013690574983800 ) ) ;
#906 = FILL_AREA_STYLE ('',( #750 ) ) ;
#907 = COLOUR_RGB ( '',0.7529411764705882200, 0.7529411764705882200, 0.7529411764705882200 ) ;
#908 = ADVANCED_FACE ( 'NONE', ( #916 ), #384, .T. ) ;
#909 = AXIS2_PLACEMENT_3D ( 'NONE', #714, #36, #586 ) ;
#910 = CARTESIAN_POINT ( 'NONE',  ( -15.63290359999429700, 10.00523538966157300, 9.888003690805069500 ) ) ;
#911 = STYLED_ITEM ( 'NONE', ( #713 ), #342 ) ;
#912 = UNCERTAINTY_MEASURE_WITH_UNIT (LENGTH_MEASURE( 1.000000000000000100E-005 ), #691, 'distance_accuracy_value', 'NONE');
#913 = SURFACE_STYLE_USAGE ( .BOTH. , #897 ) ;
#914 = AXIS2_PLACEMENT_3D ( 'NONE', #227, #3, #18 ) ;
#915 = ADVANCED_FACE ( 'NONE', ( #154 ), #125, .T. ) ;
#916 = FACE_OUTER_BOUND ( 'NONE', #756, .T. ) ;
#917 = ORIENTED_EDGE ( 'NONE', *, *, #7, .T. ) ;
#918 = CARTESIAN_POINT ( 'NONE',  ( -15.89999999999999900, 0.0000000000000000000, 10.06720229030754900 ) ) ;
#919 = CARTESIAN_POINT ( 'NONE',  ( 0.0000000000000000000, 0.0000000000000000000, 0.0000000000000000000 ) ) ;
#920 = CARTESIAN_POINT ( 'NONE',  ( -15.90000000000000400, 0.0000000000000000000, 9.950068535004888300 ) ) ;
#921 = APPLICATION_CONTEXT ( 'automotive_design' ) ;
#922 = VERTEX_POINT ( 'NONE', #631 ) ;
#923 = CARTESIAN_POINT ( 'NONE',  ( 15.90013690574983200, -0.005228219655119573300, -9.950205440754722000 ) ) ;
#924 = PRESENTATION_LAYER_ASSIGNMENT (  '', '', ( #845 ) ) ;
#925 =( NAMED_UNIT ( * ) PLANE_ANGLE_UNIT ( ) SI_UNIT ( $, .RADIAN. ) );
#926 = CIRCLE ( 'NONE', #769, 0.1999999999999987900 ) ;
#927 = CARTESIAN_POINT ( 'NONE',  ( -15.70006853500489200, 0.0000000000000000000, -10.15000000000000000 ) ) ;
#928 = CARTESIAN_POINT ( 'NONE',  ( 15.89999999999999700, 0.0000000000000000000, -9.950068535004886500 ) ) ;
#929 = DIRECTION ( 'NONE',  ( 0.0000000000000000000, 0.02617694830787321200, 0.9996573249755573700 ) ) ;
#930 = FILL_AREA_STYLE ('',( #264 ) ) ;
#931 =( LENGTH_UNIT ( ) NAMED_UNIT ( * ) SI_UNIT ( .MILLI., .METRE. ) );
#932 = DIRECTION ( 'NONE',  ( 1.000000000000000000, 0.0000000000000000000, 0.0000000000000000000 ) ) ;
#933 =( LENGTH_UNIT ( ) NAMED_UNIT ( * ) SI_UNIT ( .MILLI., .METRE. ) );
#934 = FACE_OUTER_BOUND ( 'NONE', #353, .T. ) ;
#935 = STYLED_ITEM ( 'NONE', ( #795 ), #155 ) ;
#936 = SURFACE_STYLE_USAGE ( .BOTH. , #266 ) ;
#937 = DIRECTION ( 'NONE',  ( 0.0000000000000000000, 0.0000000000000000000, 1.000000000000000000 ) ) ;
#938 = DIRECTION ( 'NONE',  ( -0.02617694830787320800, 0.9996573249755572600, 0.0000000000000000000 ) ) ;
#939 = CARTESIAN_POINT ( 'NONE',  ( -11.43000000000000300, 0.0000000000000000000, 7.620000000000000100 ) ) ;
#940 = DIRECTION ( 'NONE',  ( 0.0000000000000000000, 0.0000000000000000000, 1.000000000000000000 ) ) ;
#941 = ORIENTED_EDGE ( 'NONE', *, *, #358, .T. ) ;
ENDSEC;
END-ISO-10303-21;
